<svg width="20" height="20" viewBox="0 0 20 20" fill="none" xmlns="http://www.w3.org/2000/svg">
<mask id="mask0_8987_4342" style="mask-type:alpha" maskUnits="userSpaceOnUse" x="0" y="0" width="20" height="20">
<rect width="20" height="20" fill="#D9D9D9"/>
</mask>
<g mask="url(#mask0_8987_4342)">
<path d="M5 18.3327C4.30556 18.3327 3.71528 18.0896 3.22917 17.6035C2.74306 17.1174 2.5 16.5271 2.5 15.8327V13.3327H5V1.66602H17.5V9.24935C17.2222 9.1799 16.941 9.15907 16.6563 9.18685C16.3715 9.21463 16.0972 9.28407 15.8333 9.39518V3.33268H6.66667V13.3327H11.6667L10 14.9993H4.16667V15.8327C4.16667 16.0688 4.24653 16.2667 4.40625 16.4264C4.56597 16.5862 4.76389 16.666 5 16.666H10V18.3327H5ZM11.6667 18.3327V15.6868L15.25 12.1035L16.1458 12.9993L12.9167 16.2077V17.0827H13.7917L17.0208 13.8743L17.8958 14.7493L14.3125 18.3327H11.6667ZM17.8958 14.7493L15.25 12.1035L16.2917 11.0618C16.4444 10.9091 16.6389 10.8327 16.875 10.8327C17.1111 10.8327 17.3056 10.9091 17.4583 11.0618L18.9375 12.541C19.0903 12.6938 19.1667 12.8882 19.1667 13.1243C19.1667 13.3605 19.0903 13.5549 18.9375 13.7077L17.8958 14.7493ZM7.5 7.49935V5.83268H15V7.49935H7.5ZM7.5 9.99935V8.33268H15V9.99935H7.5Z" fill="#8C8DA3"/>
</g>
</svg>
