<svg width="52" height="52" viewBox="0 0 52 52" fill="none" xmlns="http://www.w3.org/2000/svg">
<circle cx="26" cy="26" r="26" fill="#D1D1DA"/>
<mask id="mask0_11417_3999" style="mask-type:alpha" maskUnits="userSpaceOnUse" x="11" y="11" width="29" height="29">
<rect x="11" y="11" width="29" height="29" fill="#D9D9D9"/>
</mask>
<g mask="url(#mask0_11417_3999)">
<path d="M11 35.1667V32.75H13.4167V14.625H37.5833V32.75H40V35.1667H11ZM23.0833 32.75H27.9167V31.5417H23.0833V32.75Z" fill="#47486C"/>
<path d="M18.7867 24.3581C18.7867 23.9461 18.8787 23.5781 19.0627 23.2541C19.2507 22.9261 19.5047 22.6721 19.8247 22.4921C20.1487 22.3081 20.5107 22.2161 20.9107 22.2161C21.3787 22.2161 21.7887 22.3361 22.1407 22.5761C22.4927 22.8161 22.7387 23.1481 22.8787 23.5721H21.9127C21.8167 23.3721 21.6807 23.2221 21.5047 23.1221C21.3327 23.0221 21.1327 22.9721 20.9047 22.9721C20.6607 22.9721 20.4427 23.0301 20.2507 23.1461C20.0627 23.2581 19.9147 23.4181 19.8067 23.6261C19.7027 23.8341 19.6507 24.0781 19.6507 24.3581C19.6507 24.6341 19.7027 24.8781 19.8067 25.0901C19.9147 25.2981 20.0627 25.4601 20.2507 25.5761C20.4427 25.6881 20.6607 25.7441 20.9047 25.7441C21.1327 25.7441 21.3327 25.6941 21.5047 25.5941C21.6807 25.4901 21.8167 25.3381 21.9127 25.1381H22.8787C22.7387 25.5661 22.4927 25.9001 22.1407 26.1401C21.7927 26.3761 21.3827 26.4941 20.9107 26.4941C20.5107 26.4941 20.1487 26.4041 19.8247 26.2241C19.5047 26.0401 19.2507 25.7861 19.0627 25.4621C18.8787 25.1381 18.7867 24.7701 18.7867 24.3581ZM25.7562 26.4581L24.8322 24.8261H24.4362V26.4581H23.5962V22.2701H25.1682C25.4922 22.2701 25.7682 22.3281 25.9962 22.4441C26.2242 22.5561 26.3942 22.7101 26.5062 22.9061C26.6222 23.0981 26.6802 23.3141 26.6802 23.5541C26.6802 23.8301 26.6002 24.0801 26.4402 24.3041C26.2802 24.5241 26.0422 24.6761 25.7262 24.7601L26.7282 26.4581H25.7562ZM24.4362 24.1961H25.1382C25.3662 24.1961 25.5362 24.1421 25.6482 24.0341C25.7602 23.9221 25.8162 23.7681 25.8162 23.5721C25.8162 23.3801 25.7602 23.2321 25.6482 23.1281C25.5362 23.0201 25.3662 22.9661 25.1382 22.9661H24.4362V24.1961ZM32.006 22.2701V26.4581H31.166V23.7341L30.044 26.4581H29.408L28.28 23.7341V26.4581H27.44V22.2701H28.394L29.726 25.3841L31.058 22.2701H32.006Z" fill="white"/>
</g>
</svg>
