<svg width="193" height="650" viewBox="0 0 193 650" fill="none" xmlns="http://www.w3.org/2000/svg">
<path d="M586.568 1324.91H467.567C444.158 1324.91 425.182 1305.99 425.182 1282.64V1171.28C425.182 1147.93 444.158 1129.01 467.567 1129.01H502.376C525.784 1129.01 544.76 1110.08 544.76 1086.73V875.801C544.76 852.451 525.784 833.525 502.376 833.525H228.12C204.711 833.525 185.735 814.599 185.735 791.249V603.572C185.735 580.223 166.759 561.295 143.351 561.295H78.428C55.0199 561.295 36.0438 542.367 36.0438 519.019V481.649V358.972C36.0438 335.624 17.0677 316.696 -6.34053 316.696H-57.5219C-80.9302 316.696 -99.9062 297.768 -99.9062 274.419V155.139C-99.9062 131.791 -80.9302 112.863 -57.5219 112.863H69.6745C93.0824 112.863 112.058 93.9352 112.058 70.5866V-0.754883" stroke="url(#paint0_linear_9220_8931)" stroke-width="2"/>
<defs>
<linearGradient id="paint0_linear_9220_8931" x1="243.331" y1="-0.754883" x2="243.331" y2="1324.91" gradientUnits="userSpaceOnUse">
<stop stop-color="#00BDA4"/>
<stop offset="1" stop-color="#00A4BC"/>
</linearGradient>
</defs>
</svg>
