<svg width="428" height="427" viewBox="0 0 428 427" fill="none" xmlns="http://www.w3.org/2000/svg">
<circle opacity="0.3" cx="225.5" cy="209.5" r="201.5" stroke="white" stroke-width="2" stroke-dasharray="3 4"/>
<circle opacity="0.3" cx="225.5" cy="209.5" r="150.875" stroke="white" stroke-width="2" stroke-dasharray="3 4"/>
<circle cx="225.205" cy="209.5" r="101.705" fill="white" stroke="white"/>
<path d="M213.312 146.375L201.625 153.25V167V180.75L213.312 187.625L225 194.5L236.688 187.625L248.375 180.75V167V153.25L236.688 146.375L225 139.5L213.312 146.375Z" stroke="url(#paint0_linear_9368_10192)" stroke-width="5" stroke-linecap="round" stroke-linejoin="round"/>
<path d="M225 139.5V167" stroke="url(#paint1_linear_9368_10192)" stroke-width="5" stroke-linecap="round" stroke-linejoin="round"/>
<path d="M248.375 180.75L225 167" stroke="url(#paint2_linear_9368_10192)" stroke-width="5" stroke-linecap="round" stroke-linejoin="round"/>
<path d="M201.625 180.75L225 167" stroke="url(#paint3_linear_9368_10192)" stroke-width="5" stroke-linecap="round" stroke-linejoin="round"/>
<path d="M225 194.5V180.75" stroke="url(#paint4_linear_9368_10192)" stroke-width="5" stroke-linecap="round" stroke-linejoin="round"/>
<path d="M248.375 153.25L237.375 160.125" stroke="url(#paint5_linear_9368_10192)" stroke-width="5" stroke-linecap="round" stroke-linejoin="round"/>
<path d="M201.625 153.25L212.625 160.125" stroke="url(#paint6_linear_9368_10192)" stroke-width="5" stroke-linecap="round" stroke-linejoin="round"/>
<path d="M184.688 218.112C184.688 219.04 184.368 219.813 183.728 220.432C183.099 221.04 182.133 221.344 180.832 221.344H178.688V226H177.232V214.848H180.832C182.091 214.848 183.045 215.152 183.696 215.76C184.357 216.368 184.688 217.152 184.688 218.112ZM180.832 220.144C181.643 220.144 182.24 219.968 182.624 219.616C183.008 219.264 183.2 218.763 183.2 218.112C183.2 216.736 182.411 216.048 180.832 216.048H178.688V220.144H180.832ZM187.25 215.808C186.972 215.808 186.738 215.712 186.546 215.52C186.354 215.328 186.258 215.093 186.258 214.816C186.258 214.539 186.354 214.304 186.546 214.112C186.738 213.92 186.972 213.824 187.25 213.824C187.516 213.824 187.74 213.92 187.922 214.112C188.114 214.304 188.21 214.539 188.21 214.816C188.21 215.093 188.114 215.328 187.922 215.52C187.74 215.712 187.516 215.808 187.25 215.808ZM187.954 217.232V226H186.498V217.232H187.954ZM193.699 224.656L196.419 217.232H197.971L194.531 226H192.835L189.395 217.232H190.963L193.699 224.656ZM203.228 226.144C202.407 226.144 201.66 225.957 200.988 225.584C200.327 225.211 199.804 224.683 199.42 224C199.047 223.307 198.86 222.507 198.86 221.6C198.86 220.704 199.052 219.915 199.436 219.232C199.831 218.539 200.364 218.011 201.036 217.648C201.708 217.275 202.46 217.088 203.292 217.088C204.124 217.088 204.876 217.275 205.548 217.648C206.22 218.011 206.748 218.533 207.132 219.216C207.527 219.899 207.724 220.693 207.724 221.6C207.724 222.507 207.521 223.307 207.116 224C206.721 224.683 206.183 225.211 205.5 225.584C204.817 225.957 204.06 226.144 203.228 226.144ZM203.228 224.864C203.751 224.864 204.241 224.741 204.7 224.496C205.159 224.251 205.527 223.883 205.804 223.392C206.092 222.901 206.236 222.304 206.236 221.6C206.236 220.896 206.097 220.299 205.82 219.808C205.543 219.317 205.18 218.955 204.732 218.72C204.284 218.475 203.799 218.352 203.276 218.352C202.743 218.352 202.252 218.475 201.804 218.72C201.367 218.955 201.015 219.317 200.748 219.808C200.481 220.299 200.348 220.896 200.348 221.6C200.348 222.315 200.476 222.917 200.732 223.408C200.999 223.899 201.351 224.267 201.788 224.512C202.225 224.747 202.705 224.864 203.228 224.864ZM211.414 218.432V223.6C211.414 224.027 211.505 224.331 211.686 224.512C211.868 224.683 212.182 224.768 212.63 224.768H213.702V226H212.39C211.58 226 210.972 225.813 210.566 225.44C210.161 225.067 209.958 224.453 209.958 223.6V218.432H208.822V217.232H209.958V215.024H211.414V217.232H213.702V218.432H211.414ZM217.242 218.432V223.6C217.242 224.027 217.333 224.331 217.514 224.512C217.696 224.683 218.01 224.768 218.458 224.768H219.53V226H218.218C217.408 226 216.8 225.813 216.394 225.44C215.989 225.067 215.786 224.453 215.786 223.6V218.432H214.65V217.232H215.786V215.024H217.242V217.232H219.53V218.432H217.242ZM229.096 226.112C228.36 226.112 227.699 225.984 227.112 225.728C226.536 225.461 226.083 225.099 225.752 224.64C225.421 224.171 225.251 223.632 225.24 223.024H226.792C226.845 223.547 227.059 223.989 227.432 224.352C227.816 224.704 228.371 224.88 229.096 224.88C229.789 224.88 230.333 224.709 230.728 224.368C231.133 224.016 231.336 223.568 231.336 223.024C231.336 222.597 231.219 222.251 230.984 221.984C230.749 221.717 230.456 221.515 230.104 221.376C229.752 221.237 229.277 221.088 228.68 220.928C227.944 220.736 227.352 220.544 226.904 220.352C226.467 220.16 226.088 219.861 225.768 219.456C225.459 219.04 225.304 218.485 225.304 217.792C225.304 217.184 225.459 216.645 225.768 216.176C226.077 215.707 226.509 215.344 227.064 215.088C227.629 214.832 228.275 214.704 229 214.704C230.045 214.704 230.899 214.965 231.56 215.488C232.232 216.011 232.611 216.704 232.696 217.568H231.096C231.043 217.141 230.819 216.768 230.424 216.448C230.029 216.117 229.507 215.952 228.856 215.952C228.248 215.952 227.752 216.112 227.368 216.432C226.984 216.741 226.792 217.179 226.792 217.744C226.792 218.149 226.904 218.48 227.128 218.736C227.363 218.992 227.645 219.189 227.976 219.328C228.317 219.456 228.792 219.605 229.4 219.776C230.136 219.979 230.728 220.181 231.176 220.384C231.624 220.576 232.008 220.88 232.328 221.296C232.648 221.701 232.808 222.256 232.808 222.96C232.808 223.504 232.664 224.016 232.376 224.496C232.088 224.976 231.661 225.365 231.096 225.664C230.531 225.963 229.864 226.112 229.096 226.112ZM234.407 221.584C234.407 220.688 234.588 219.904 234.951 219.232C235.313 218.549 235.809 218.021 236.439 217.648C237.079 217.275 237.788 217.088 238.567 217.088C239.335 217.088 240.001 217.253 240.567 217.584C241.132 217.915 241.553 218.331 241.831 218.832V217.232H243.303V226H241.831V224.368C241.543 224.88 241.111 225.307 240.535 225.648C239.969 225.979 239.308 226.144 238.551 226.144C237.772 226.144 237.068 225.952 236.439 225.568C235.809 225.184 235.313 224.645 234.951 223.952C234.588 223.259 234.407 222.469 234.407 221.584ZM241.831 221.6C241.831 220.939 241.697 220.363 241.431 219.872C241.164 219.381 240.801 219.008 240.343 218.752C239.895 218.485 239.399 218.352 238.855 218.352C238.311 218.352 237.815 218.48 237.367 218.736C236.919 218.992 236.561 219.365 236.295 219.856C236.028 220.347 235.895 220.923 235.895 221.584C235.895 222.256 236.028 222.843 236.295 223.344C236.561 223.835 236.919 224.213 237.367 224.48C237.815 224.736 238.311 224.864 238.855 224.864C239.399 224.864 239.895 224.736 240.343 224.48C240.801 224.213 241.164 223.835 241.431 223.344C241.697 222.843 241.831 222.261 241.831 221.6ZM249.027 224.656L251.747 217.232H253.299L249.859 226H248.163L244.723 217.232H246.291L249.027 224.656ZM262.732 221.28C262.732 221.557 262.716 221.851 262.684 222.16H255.676C255.729 223.024 256.023 223.701 256.556 224.192C257.1 224.672 257.756 224.912 258.524 224.912C259.153 224.912 259.676 224.768 260.092 224.48C260.519 224.181 260.817 223.787 260.988 223.296H262.556C262.321 224.139 261.852 224.827 261.148 225.36C260.444 225.883 259.569 226.144 258.524 226.144C257.692 226.144 256.945 225.957 256.284 225.584C255.633 225.211 255.121 224.683 254.748 224C254.375 223.307 254.188 222.507 254.188 221.6C254.188 220.693 254.369 219.899 254.732 219.216C255.095 218.533 255.601 218.011 256.252 217.648C256.913 217.275 257.671 217.088 258.524 217.088C259.356 217.088 260.092 217.269 260.732 217.632C261.372 217.995 261.863 218.496 262.204 219.136C262.556 219.765 262.732 220.48 262.732 221.28ZM261.228 220.976C261.228 220.421 261.105 219.947 260.86 219.552C260.615 219.147 260.279 218.843 259.852 218.64C259.436 218.427 258.972 218.32 258.46 218.32C257.724 218.32 257.095 218.555 256.572 219.024C256.06 219.493 255.767 220.144 255.692 220.976H261.228ZM264.11 221.584C264.11 220.688 264.291 219.904 264.654 219.232C265.017 218.549 265.513 218.021 266.142 217.648C266.782 217.275 267.497 217.088 268.286 217.088C268.969 217.088 269.603 217.248 270.19 217.568C270.777 217.877 271.225 218.288 271.534 218.8V214.16H273.006V226H271.534V224.352C271.246 224.875 270.819 225.307 270.254 225.648C269.689 225.979 269.027 226.144 268.27 226.144C267.491 226.144 266.782 225.952 266.142 225.568C265.513 225.184 265.017 224.645 264.654 223.952C264.291 223.259 264.11 222.469 264.11 221.584ZM271.534 221.6C271.534 220.939 271.401 220.363 271.134 219.872C270.867 219.381 270.505 219.008 270.046 218.752C269.598 218.485 269.102 218.352 268.558 218.352C268.014 218.352 267.518 218.48 267.07 218.736C266.622 218.992 266.265 219.365 265.998 219.856C265.731 220.347 265.598 220.923 265.598 221.584C265.598 222.256 265.731 222.843 265.998 223.344C266.265 223.835 266.622 224.213 267.07 224.48C267.518 224.736 268.014 224.864 268.558 224.864C269.102 224.864 269.598 224.736 270.046 224.48C270.505 224.213 270.867 223.835 271.134 223.344C271.401 222.843 271.534 222.261 271.534 221.6Z" fill="#191A47"/>
<path d="M177.232 253.104C177.232 253.984 177 254.8 176.536 255.552C176.088 256.288 175.416 256.896 174.52 257.376C173.64 257.84 172.592 258.096 171.376 258.144V260.088H169.84V258.12C168.144 257.976 166.776 257.472 165.736 256.608C164.696 255.728 164.144 254.536 164.08 253.032H168.448C168.544 253.992 169.008 254.608 169.84 254.88V251.088C168.592 250.768 167.592 250.456 166.84 250.152C166.104 249.848 165.456 249.36 164.896 248.688C164.336 248.016 164.056 247.096 164.056 245.928C164.056 244.472 164.592 243.304 165.664 242.424C166.752 241.544 168.144 241.048 169.84 240.936V238.992H171.376V240.936C173.056 241.064 174.384 241.552 175.36 242.4C176.336 243.248 176.88 244.424 176.992 245.928H172.6C172.504 245.064 172.096 244.504 171.376 244.248V247.968C172.704 248.336 173.728 248.664 174.448 248.952C175.168 249.24 175.808 249.72 176.368 250.392C176.944 251.048 177.232 251.952 177.232 253.104ZM168.4 245.736C168.4 246.136 168.52 246.472 168.76 246.744C169.016 247.016 169.376 247.256 169.84 247.464V244.128C169.392 244.208 169.04 244.384 168.784 244.656C168.528 244.912 168.4 245.272 168.4 245.736ZM171.376 254.952C171.856 254.872 172.232 254.68 172.504 254.376C172.792 254.072 172.936 253.696 172.936 253.248C172.936 252.832 172.8 252.496 172.528 252.24C172.272 251.968 171.888 251.736 171.376 251.544V254.952ZM182.757 248.592C181.253 247.792 180.501 246.536 180.501 244.824C180.501 243.96 180.725 243.176 181.173 242.472C181.621 241.752 182.301 241.184 183.213 240.768C184.125 240.336 185.245 240.12 186.573 240.12C187.901 240.12 189.013 240.336 189.909 240.768C190.821 241.184 191.501 241.752 191.949 242.472C192.397 243.176 192.621 243.96 192.621 244.824C192.621 245.688 192.413 246.44 191.997 247.08C191.597 247.72 191.053 248.224 190.365 248.592C191.229 249.008 191.893 249.584 192.357 250.32C192.821 251.04 193.053 251.888 193.053 252.864C193.053 254 192.765 254.984 192.189 255.816C191.613 256.632 190.829 257.256 189.837 257.688C188.861 258.12 187.773 258.336 186.573 258.336C185.373 258.336 184.277 258.12 183.285 257.688C182.309 257.256 181.533 256.632 180.957 255.816C180.381 254.984 180.093 254 180.093 252.864C180.093 251.872 180.325 251.016 180.789 250.296C181.253 249.56 181.909 248.992 182.757 248.592ZM188.637 245.448C188.637 244.792 188.445 244.288 188.061 243.936C187.693 243.568 187.197 243.384 186.573 243.384C185.949 243.384 185.445 243.568 185.061 243.936C184.693 244.304 184.509 244.816 184.509 245.472C184.509 246.096 184.701 246.592 185.085 246.96C185.469 247.312 185.965 247.488 186.573 247.488C187.181 247.488 187.677 247.304 188.061 246.936C188.445 246.568 188.637 246.072 188.637 245.448ZM186.573 250.368C185.821 250.368 185.213 250.576 184.749 250.992C184.285 251.392 184.053 251.952 184.053 252.672C184.053 253.344 184.277 253.896 184.725 254.328C185.189 254.76 185.805 254.976 186.573 254.976C187.341 254.976 187.941 254.76 188.373 254.328C188.821 253.896 189.045 253.344 189.045 252.672C189.045 251.968 188.813 251.408 188.349 250.992C187.901 250.576 187.309 250.368 186.573 250.368ZM200.263 254.208L197.599 261.096H194.983L196.375 254.208H200.263ZM207.56 245.424C207.624 243.712 208.184 242.392 209.24 241.464C210.296 240.536 211.728 240.072 213.536 240.072C214.736 240.072 215.76 240.28 216.608 240.696C217.472 241.112 218.12 241.68 218.552 242.4C219 243.12 219.224 243.928 219.224 244.824C219.224 245.88 218.96 246.744 218.432 247.416C217.904 248.072 217.288 248.52 216.584 248.76V248.856C217.496 249.16 218.216 249.664 218.744 250.368C219.272 251.072 219.536 251.976 219.536 253.08C219.536 254.072 219.304 254.952 218.84 255.72C218.392 256.472 217.728 257.064 216.848 257.496C215.984 257.928 214.952 258.144 213.752 258.144C211.832 258.144 210.296 257.672 209.144 256.728C208.008 255.784 207.408 254.36 207.344 252.456H211.328C211.344 253.16 211.544 253.72 211.928 254.136C212.312 254.536 212.872 254.736 213.608 254.736C214.232 254.736 214.712 254.56 215.048 254.208C215.4 253.84 215.576 253.36 215.576 252.768C215.576 252 215.328 251.448 214.832 251.112C214.352 250.76 213.576 250.584 212.504 250.584H211.736V247.248H212.504C213.32 247.248 213.976 247.112 214.472 246.84C214.984 246.552 215.24 246.048 215.24 245.328C215.24 244.752 215.08 244.304 214.76 243.984C214.44 243.664 214 243.504 213.44 243.504C212.832 243.504 212.376 243.688 212.072 244.056C211.784 244.424 211.616 244.88 211.568 245.424H207.56ZM222.091 245.424C222.155 243.712 222.715 242.392 223.771 241.464C224.827 240.536 226.259 240.072 228.067 240.072C229.267 240.072 230.291 240.28 231.139 240.696C232.003 241.112 232.651 241.68 233.083 242.4C233.531 243.12 233.755 243.928 233.755 244.824C233.755 245.88 233.491 246.744 232.963 247.416C232.435 248.072 231.819 248.52 231.115 248.76V248.856C232.027 249.16 232.747 249.664 233.275 250.368C233.803 251.072 234.067 251.976 234.067 253.08C234.067 254.072 233.835 254.952 233.371 255.72C232.923 256.472 232.259 257.064 231.379 257.496C230.515 257.928 229.483 258.144 228.283 258.144C226.363 258.144 224.827 257.672 223.675 256.728C222.539 255.784 221.939 254.36 221.875 252.456H225.859C225.875 253.16 226.075 253.72 226.459 254.136C226.843 254.536 227.403 254.736 228.139 254.736C228.763 254.736 229.243 254.56 229.579 254.208C229.931 253.84 230.107 253.36 230.107 252.768C230.107 252 229.859 251.448 229.363 251.112C228.883 250.76 228.107 250.584 227.035 250.584H226.267V247.248H227.035C227.851 247.248 228.507 247.112 229.003 246.84C229.515 246.552 229.771 246.048 229.771 245.328C229.771 244.752 229.611 244.304 229.291 243.984C228.971 243.664 228.531 243.504 227.971 243.504C227.363 243.504 226.907 243.688 226.603 244.056C226.315 244.424 226.147 244.88 226.099 245.424H222.091ZM241.564 249C241.564 246.248 242.092 244.08 243.148 242.496C244.22 240.912 245.94 240.12 248.308 240.12C250.676 240.12 252.388 240.912 253.444 242.496C254.516 244.08 255.052 246.248 255.052 249C255.052 251.784 254.516 253.968 253.444 255.552C252.388 257.136 250.676 257.928 248.308 257.928C245.94 257.928 244.22 257.136 243.148 255.552C242.092 253.968 241.564 251.784 241.564 249ZM251.02 249C251.02 247.384 250.844 246.144 250.492 245.28C250.14 244.4 249.412 243.96 248.308 243.96C247.204 243.96 246.476 244.4 246.124 245.28C245.772 246.144 245.596 247.384 245.596 249C245.596 250.088 245.66 250.992 245.788 251.712C245.916 252.416 246.172 252.992 246.556 253.44C246.956 253.872 247.54 254.088 248.308 254.088C249.076 254.088 249.652 253.872 250.036 253.44C250.436 252.992 250.7 252.416 250.828 251.712C250.956 250.992 251.02 250.088 251.02 249ZM257.077 254.712C257.621 254.28 257.869 254.08 257.821 254.112C259.389 252.816 260.621 251.752 261.517 250.92C262.429 250.088 263.197 249.216 263.821 248.304C264.445 247.392 264.757 246.504 264.757 245.64C264.757 244.984 264.605 244.472 264.301 244.104C263.997 243.736 263.541 243.552 262.933 243.552C262.325 243.552 261.845 243.784 261.493 244.248C261.157 244.696 260.989 245.336 260.989 246.168H257.029C257.061 244.808 257.349 243.672 257.893 242.76C258.453 241.848 259.181 241.176 260.077 240.744C260.989 240.312 261.997 240.096 263.101 240.096C265.005 240.096 266.437 240.584 267.397 241.56C268.373 242.536 268.861 243.808 268.861 245.376C268.861 247.088 268.277 248.68 267.109 250.152C265.941 251.608 264.453 253.032 262.645 254.424H269.125V257.76H257.077V254.712ZM271.028 254.88V251.568L278.612 240.72H283.196V251.328H285.164V254.88H283.196V258H279.092V254.88H271.028ZM279.38 245.232L275.348 251.328H279.38V245.232Z" fill="#191A47"/>
<circle cx="312" cy="52" r="52" fill="white"/>
<path d="M307.676 22.0492C305.707 22.2813 304.097 22.682 302.459 23.357C300.609 24.1164 298.908 25.1781 297.361 26.5281L296.812 26.9992V25.9094V24.8125H295.406H294V30.2406V35.6758L295.533 33.3836C296.37 32.125 297.199 30.9227 297.375 30.7117C299.365 28.293 301.692 26.6477 304.455 25.6984C306.094 25.143 307.402 24.918 309.525 24.8406L310.875 24.7914V23.3992V22L309.384 22.007C308.562 22.0141 307.795 22.0352 307.676 22.0492Z" fill="url(#paint7_linear_9368_10192)"/>
<path d="M318.75 23.4555V24.918L318.237 25.0445C317.963 25.1078 317.4 25.3258 316.999 25.5297L316.275 25.8883L315.241 24.8547L314.215 23.8281L313.174 24.8687L312.141 25.9023L313.174 26.9359L314.208 27.9695L313.92 28.518C313.631 29.0734 313.266 30.0648 313.266 30.3039C313.266 30.4305 313.188 30.4375 311.789 30.4375H310.312V31.8438V33.25H311.789C313.188 33.25 313.266 33.257 313.266 33.3836C313.266 33.6227 313.631 34.6141 313.92 35.1695L314.208 35.718L313.174 36.7516L312.141 37.7852L313.181 38.8258L314.215 39.8594L315.248 38.8258L316.282 37.7922L316.83 38.0805C317.4 38.3758 318.033 38.6148 318.49 38.6992L318.75 38.7484V40.218V41.6875H320.156H321.562V40.2109C321.562 38.8117 321.569 38.7344 321.696 38.7344C321.935 38.7344 322.927 38.3688 323.482 38.0805L324.03 37.7922L325.064 38.8258L326.098 39.8594L327.131 38.8258L328.172 37.7852L327.145 36.7586L326.112 35.725L326.47 35.0008C326.674 34.6 326.892 34.0375 326.956 33.7633L327.082 33.25H328.544H330V31.8438V30.4375H328.544H327.082L326.956 29.9242C326.892 29.65 326.674 29.0875 326.47 28.6867L326.112 27.9625L327.145 26.9359L328.172 25.9023L327.138 24.8687L326.098 23.8281L325.071 24.8547L324.037 25.8883L323.313 25.5297C322.913 25.3258 322.35 25.1078 322.076 25.0445L321.562 24.918V23.4555V22H320.156H318.75V23.4555ZM321.387 27.8711C322.723 28.2789 323.834 29.4461 324.199 30.8242C324.333 31.3586 324.333 32.3289 324.199 32.8633C323.939 33.8477 323.257 34.7828 322.385 35.3594C321.373 36.0203 320.016 36.1961 318.877 35.8023C318.138 35.5492 317.604 35.1906 317.077 34.6141C316.345 33.8195 316.008 32.9336 316.008 31.8016C316.008 29.425 318.075 27.5125 320.473 27.6813C320.669 27.6953 321.077 27.7797 321.387 27.8711Z" fill="url(#paint8_linear_9368_10192)"/>
<path d="M319.404 30.6203C318.968 30.8805 318.75 31.2883 318.75 31.8438C318.75 32.7086 319.291 33.25 320.156 33.25C321.021 33.25 321.562 32.7086 321.562 31.8438C321.562 30.9789 321.021 30.4375 320.149 30.4375C319.791 30.4375 319.636 30.4727 319.404 30.6203Z" fill="url(#paint9_linear_9368_10192)"/>
<path d="M302.438 39.768V41.2305L301.924 41.357C301.65 41.4203 301.087 41.6383 300.687 41.8422L299.962 42.2008L298.929 41.1672L297.902 40.1406L296.862 41.1812L295.828 42.2148L296.862 43.2484L297.895 44.282L297.607 44.8305C297.319 45.3859 296.953 46.3773 296.953 46.6164C296.953 46.743 296.876 46.75 295.477 46.75H294V48.1562V49.5625H295.477C296.876 49.5625 296.953 49.5695 296.953 49.6961C296.953 49.9352 297.319 50.9266 297.607 51.482L297.895 52.0305L296.862 53.0641L295.828 54.0977L296.869 55.1383L297.902 56.1719L298.936 55.1383L299.969 54.1047L300.518 54.393C301.087 54.6883 301.72 54.9273 302.177 55.0117L302.438 55.0609V56.5305V58H303.844H305.25V56.5234C305.25 55.1242 305.257 55.0469 305.384 55.0469C305.623 55.0469 306.614 54.6813 307.17 54.393L307.718 54.1047L308.752 55.1383L309.785 56.1719L310.819 55.1383L311.859 54.0977L310.833 53.0711L309.799 52.0375L310.158 51.3133C310.362 50.9125 310.58 50.35 310.643 50.0758L310.77 49.5625H312.232H313.688V48.1562V46.75H312.232H310.77L310.643 46.2367C310.58 45.9625 310.362 45.4 310.158 44.9992L309.799 44.275L310.833 43.2484L311.859 42.2148L310.826 41.1812L309.785 40.1406L308.759 41.1672L307.725 42.2008L307.001 41.8422C306.6 41.6383 306.038 41.4203 305.763 41.357L305.25 41.2305V39.768V38.3125H303.844H302.438V39.768ZM305.074 44.1836C306.41 44.5914 307.521 45.7586 307.887 47.1367C308.02 47.6711 308.02 48.6414 307.887 49.1758C307.627 50.1602 306.945 51.0953 306.073 51.6719C305.06 52.3328 303.703 52.5086 302.564 52.1148C301.826 51.8617 301.291 51.5031 300.764 50.9266C300.033 50.132 299.695 49.2461 299.695 48.1141C299.695 45.7375 301.762 43.825 304.16 43.9938C304.357 44.0078 304.765 44.0922 305.074 44.1836Z" fill="url(#paint10_linear_9368_10192)"/>
<path d="M303.091 46.9328C302.656 47.193 302.438 47.6008 302.438 48.1562C302.438 48.5078 302.473 48.6695 302.613 48.9016C302.873 49.3445 303.281 49.5625 303.844 49.5625C304.709 49.5625 305.25 49.0211 305.25 48.1562C305.25 47.2914 304.709 46.75 303.837 46.75C303.478 46.75 303.323 46.7852 303.091 46.9328Z" fill="url(#paint11_linear_9368_10192)"/>
<path d="M328.629 46.3773C327.898 47.4812 327.131 48.6133 326.934 48.8805C324.994 51.4891 322.273 53.4367 319.214 54.407C317.681 54.8992 316.493 55.082 314.482 55.1594L313.125 55.2086V56.6008V58H314.517C316.5 58 317.892 57.8102 319.727 57.2828C320.529 57.0508 322.041 56.4672 322.744 56.1086C324.044 55.4547 325.514 54.4563 326.646 53.4719L327.188 53.0008V54.0906V55.1875H328.594H330V49.7734C330 46.7922 329.993 44.3594 329.986 44.3594C329.972 44.3594 329.367 45.2664 328.629 46.3773Z" fill="url(#paint12_linear_9368_10192)"/>
<path d="M285.288 82.112C284.253 82.112 283.309 81.872 282.456 81.392C281.603 80.9013 280.925 80.224 280.424 79.36C279.933 78.4853 279.688 77.504 279.688 76.416C279.688 75.328 279.933 74.352 280.424 73.488C280.925 72.6133 281.603 71.936 282.456 71.456C283.309 70.9653 284.253 70.72 285.288 70.72C286.333 70.72 287.283 70.9653 288.136 71.456C288.989 71.936 289.661 72.608 290.152 73.472C290.643 74.336 290.888 75.3173 290.888 76.416C290.888 77.5147 290.643 78.496 290.152 79.36C289.661 80.224 288.989 80.9013 288.136 81.392C287.283 81.872 286.333 82.112 285.288 82.112ZM285.288 80.848C286.067 80.848 286.765 80.6667 287.384 80.304C288.013 79.9413 288.504 79.424 288.856 78.752C289.219 78.08 289.4 77.3013 289.4 76.416C289.4 75.52 289.219 74.7413 288.856 74.08C288.504 73.408 288.019 72.8907 287.4 72.528C286.781 72.1653 286.077 71.984 285.288 71.984C284.499 71.984 283.795 72.1653 283.176 72.528C282.557 72.8907 282.067 73.408 281.704 74.08C281.352 74.7413 281.176 75.52 281.176 76.416C281.176 77.3013 281.352 78.08 281.704 78.752C282.067 79.424 282.557 79.9413 283.176 80.304C283.805 80.6667 284.509 80.848 285.288 80.848ZM294.266 74.848C294.554 74.3467 294.981 73.9307 295.546 73.6C296.122 73.2587 296.789 73.088 297.546 73.088C298.325 73.088 299.029 73.2747 299.658 73.648C300.298 74.0213 300.799 74.5493 301.162 75.232C301.525 75.904 301.706 76.688 301.706 77.584C301.706 78.4693 301.525 79.2587 301.162 79.952C300.799 80.6453 300.298 81.184 299.658 81.568C299.029 81.952 298.325 82.144 297.546 82.144C296.799 82.144 296.138 81.9787 295.562 81.648C294.997 81.3067 294.565 80.8853 294.266 80.384V86.16H292.81V73.232H294.266V74.848ZM300.218 77.584C300.218 76.9227 300.085 76.3467 299.818 75.856C299.551 75.3653 299.189 74.992 298.73 74.736C298.282 74.48 297.786 74.352 297.242 74.352C296.709 74.352 296.213 74.4853 295.754 74.752C295.306 75.008 294.943 75.3867 294.666 75.888C294.399 76.3787 294.266 76.9493 294.266 77.6C294.266 78.2613 294.399 78.8427 294.666 79.344C294.943 79.8347 295.306 80.2133 295.754 80.48C296.213 80.736 296.709 80.864 297.242 80.864C297.786 80.864 298.282 80.736 298.73 80.48C299.189 80.2133 299.551 79.8347 299.818 79.344C300.085 78.8427 300.218 78.256 300.218 77.584ZM311.623 77.28C311.623 77.5573 311.607 77.8507 311.575 78.16H304.567C304.62 79.024 304.913 79.7013 305.447 80.192C305.991 80.672 306.647 80.912 307.415 80.912C308.044 80.912 308.567 80.768 308.983 80.48C309.409 80.1813 309.708 79.7867 309.879 79.296H311.447C311.212 80.1387 310.743 80.8267 310.039 81.36C309.335 81.8827 308.46 82.144 307.415 82.144C306.583 82.144 305.836 81.9573 305.175 81.584C304.524 81.2107 304.012 80.6827 303.639 80C303.265 79.3067 303.079 78.5067 303.079 77.6C303.079 76.6933 303.26 75.8987 303.623 75.216C303.985 74.5333 304.492 74.0107 305.143 73.648C305.804 73.2747 306.561 73.088 307.415 73.088C308.247 73.088 308.983 73.2693 309.623 73.632C310.263 73.9947 310.753 74.496 311.095 75.136C311.447 75.7653 311.623 76.48 311.623 77.28ZM310.119 76.976C310.119 76.4213 309.996 75.9467 309.751 75.552C309.505 75.1467 309.169 74.8427 308.743 74.64C308.327 74.4267 307.863 74.32 307.351 74.32C306.615 74.32 305.985 74.5547 305.463 75.024C304.951 75.4933 304.657 76.144 304.583 76.976H310.119ZM315.001 74.656C315.257 74.1547 315.619 73.7653 316.089 73.488C316.569 73.2107 317.15 73.072 317.833 73.072V74.576H317.449C315.817 74.576 315.001 75.4613 315.001 77.232V82H313.545V73.232H315.001V74.656ZM318.969 77.584C318.969 76.688 319.151 75.904 319.513 75.232C319.876 74.5493 320.372 74.0213 321.001 73.648C321.641 73.2747 322.351 73.088 323.129 73.088C323.897 73.088 324.564 73.2533 325.129 73.584C325.695 73.9147 326.116 74.3307 326.393 74.832V73.232H327.865V82H326.393V80.368C326.105 80.88 325.673 81.3067 325.097 81.648C324.532 81.9787 323.871 82.144 323.113 82.144C322.335 82.144 321.631 81.952 321.001 81.568C320.372 81.184 319.876 80.6453 319.513 79.952C319.151 79.2587 318.969 78.4693 318.969 77.584ZM326.393 77.6C326.393 76.9387 326.26 76.3627 325.993 75.872C325.727 75.3813 325.364 75.008 324.905 74.752C324.457 74.4853 323.961 74.352 323.417 74.352C322.873 74.352 322.377 74.48 321.929 74.736C321.481 74.992 321.124 75.3653 320.857 75.856C320.591 76.3467 320.457 76.9227 320.457 77.584C320.457 78.256 320.591 78.8427 320.857 79.344C321.124 79.8347 321.481 80.2133 321.929 80.48C322.377 80.736 322.873 80.864 323.417 80.864C323.961 80.864 324.457 80.736 324.905 80.48C325.364 80.2133 325.727 79.8347 325.993 79.344C326.26 78.8427 326.393 78.2613 326.393 77.6ZM332.102 74.432V79.6C332.102 80.0267 332.192 80.3307 332.374 80.512C332.555 80.6827 332.87 80.768 333.318 80.768H334.39V82H333.078C332.267 82 331.659 81.8133 331.254 81.44C330.848 81.0667 330.646 80.4533 330.646 79.6V74.432H329.51V73.232H330.646V71.024H332.102V73.232H334.39V74.432H332.102ZM344.154 77.28C344.154 77.5573 344.138 77.8507 344.106 78.16H337.098C337.151 79.024 337.445 79.7013 337.978 80.192C338.522 80.672 339.178 80.912 339.946 80.912C340.575 80.912 341.098 80.768 341.514 80.48C341.941 80.1813 342.239 79.7867 342.41 79.296H343.978C343.743 80.1387 343.274 80.8267 342.57 81.36C341.866 81.8827 340.991 82.144 339.946 82.144C339.114 82.144 338.367 81.9573 337.706 81.584C337.055 81.2107 336.543 80.6827 336.17 80C335.797 79.3067 335.61 78.5067 335.61 77.6C335.61 76.6933 335.791 75.8987 336.154 75.216C336.517 74.5333 337.023 74.0107 337.674 73.648C338.335 73.2747 339.093 73.088 339.946 73.088C340.778 73.088 341.514 73.2693 342.154 73.632C342.794 73.9947 343.285 74.496 343.626 75.136C343.978 75.7653 344.154 76.48 344.154 77.28ZM342.65 76.976C342.65 76.4213 342.527 75.9467 342.282 75.552C342.037 75.1467 341.701 74.8427 341.274 74.64C340.858 74.4267 340.394 74.32 339.882 74.32C339.146 74.32 338.517 74.5547 337.994 75.024C337.482 75.4933 337.189 76.144 337.114 76.976H342.65Z" fill="#191A47"/>
<circle cx="52" cy="233" r="52" fill="white"/>
<path d="M61.8247 207.306L57.2474 210.604V213.967V217.33L53.7038 220.874L50.1519 224.426L51.3659 225.632L52.5718 226.846L56.1237 223.294L59.6673 219.75H63.0306H66.3937L69.6749 215.198C71.4796 212.696 72.9643 210.612 72.9807 210.563C73.0053 210.505 71.9881 210.481 69.7652 210.481H66.5168V207.241C66.5168 205.461 66.4922 204 66.4594 204C66.4183 204 64.3348 205.485 61.8247 207.306ZM64.7941 213.86L66.4348 213.885L65.5324 215.132L64.6219 216.387H62.6122H60.6107V214.385V212.376L61.8657 211.465L63.1126 210.563L63.1372 212.203L63.1535 213.844L64.7941 213.86Z" fill="url(#paint13_linear_9368_10192)"/>
<path d="M46.7062 209.956C42.6868 210.489 39.1431 212.244 36.2803 215.107C34.1639 217.232 32.7366 219.553 31.8261 222.375C31.2354 224.221 30.9976 225.787 30.9976 227.912C30.9976 229.626 31.1288 230.767 31.4979 232.292C33.2452 239.462 39.3481 244.917 46.6652 245.868C47.9448 246.032 50.2171 246.041 51.464 245.877C56.8615 245.171 61.5454 242.128 64.5066 237.427C66.8527 233.703 67.7222 228.831 66.8445 224.385C66.7542 223.934 66.6394 223.425 66.5983 223.253L66.5081 222.949H64.7363C63.2024 222.949 62.9808 222.966 63.0219 223.072C63.145 223.392 63.4977 224.811 63.6125 225.418C63.793 226.411 63.8504 228.412 63.7274 229.528C63.6125 230.594 63.2024 232.301 62.8333 233.228C60.9384 237.985 56.8697 241.381 51.8331 242.407C51.0045 242.571 50.6682 242.595 49.003 242.587C47.2558 242.587 47.0425 242.571 46.1073 242.357C41.4974 241.332 37.8307 238.469 35.8373 234.327C34.8776 232.35 34.451 230.627 34.3854 228.445C34.328 226.854 34.4346 225.829 34.7709 224.426C36.2392 218.421 41.3332 213.942 47.4772 213.27C48.5847 213.147 50.578 213.204 51.5788 213.385C52.1858 213.499 53.6049 213.852 53.9248 213.975C54.0315 214.016 54.0479 213.795 54.0479 212.261V210.489L53.7443 210.399C53.1866 210.243 51.8085 209.989 51.0538 209.907C50.0366 209.792 47.6988 209.816 46.7062 209.956Z" fill="url(#paint14_linear_9368_10192)"/>
<path d="M47.576 216.469C43.4581 217.051 40.0702 219.627 38.4543 223.417C37.4454 225.771 37.273 228.667 38.0031 231.152C39.2089 235.295 42.5148 238.33 46.8294 239.249C47.9287 239.478 50.365 239.462 51.4969 239.208C56.107 238.174 59.4457 234.753 60.4218 230.086C60.5284 229.569 60.5695 229.011 60.5695 227.912C60.5612 226.378 60.4792 225.73 60.1019 224.516L59.9379 223.991L58.5597 225.369L57.1816 226.747L57.2227 227.543C57.4277 231.152 55.0242 234.597 51.5462 235.688C50.1107 236.14 48.4783 236.189 47.0756 235.836C46.2307 235.615 44.91 234.991 44.2373 234.483C43.5975 234.007 42.6378 232.998 42.2604 232.407C41.8174 231.71 41.3663 230.701 41.1613 229.922C40.9972 229.323 40.9725 229.036 40.9725 227.871C40.9725 226.641 40.9972 226.452 41.2023 225.779C41.6699 224.229 42.4081 223.015 43.5155 221.981C45.1315 220.464 47.2396 219.676 49.3806 219.775L50.2583 219.808L51.6282 218.438L52.9981 217.06L52.6043 216.928C51.6118 216.6 50.7177 216.461 49.4134 216.428C48.6916 216.411 47.8631 216.428 47.576 216.469Z" fill="url(#paint15_linear_9368_10192)"/>
<path d="M45.2303 224.771C44.1394 226.034 43.8194 228.167 44.4675 229.766C44.9432 230.947 45.7389 231.801 46.8709 232.342C47.7569 232.777 48.4787 232.916 49.4467 232.851C50.513 232.777 51.5466 232.367 52.2439 231.743L52.613 231.407L51.4318 230.226L50.2505 229.036L49.9388 229.241C48.5361 230.168 46.83 228.462 47.7569 227.059L47.9619 226.747L46.8054 225.591C46.1654 224.951 45.6158 224.426 45.583 224.426C45.5584 224.426 45.3944 224.582 45.2303 224.771Z" fill="url(#paint16_linear_9368_10192)"/>
<path d="M27.688 254.848V266H26.232V254.848H27.688ZM34.4415 257.072C35.5082 257.072 36.3722 257.397 37.0335 258.048C37.6948 258.688 38.0255 259.616 38.0255 260.832V266H36.5855V261.04C36.5855 260.165 36.3668 259.499 35.9295 259.04C35.4922 258.571 34.8948 258.336 34.1375 258.336C33.3695 258.336 32.7562 258.576 32.2975 259.056C31.8495 259.536 31.6255 260.235 31.6255 261.152V266H30.1695V257.232H31.6255V258.48C31.9135 258.032 32.3028 257.685 32.7935 257.44C33.2948 257.195 33.8442 257.072 34.4415 257.072ZM43.9719 258.432H42.1319V266H40.6759V258.432H39.5399V257.232H40.6759V256.608C40.6759 255.627 40.9265 254.912 41.4279 254.464C41.9399 254.005 42.7559 253.776 43.8759 253.776V254.992C43.2359 254.992 42.7825 255.12 42.5159 255.376C42.2599 255.621 42.1319 256.032 42.1319 256.608V257.232H43.9719V258.432ZM49.4935 266.144C48.6722 266.144 47.9255 265.957 47.2535 265.584C46.5922 265.211 46.0695 264.683 45.6855 264C45.3122 263.307 45.1255 262.507 45.1255 261.6C45.1255 260.704 45.3175 259.915 45.7015 259.232C46.0962 258.539 46.6295 258.011 47.3015 257.648C47.9735 257.275 48.7255 257.088 49.5575 257.088C50.3895 257.088 51.1415 257.275 51.8135 257.648C52.4855 258.011 53.0135 258.533 53.3975 259.216C53.7922 259.899 53.9895 260.693 53.9895 261.6C53.9895 262.507 53.7868 263.307 53.3815 264C52.9868 264.683 52.4482 265.211 51.7655 265.584C51.0828 265.957 50.3255 266.144 49.4935 266.144ZM49.4935 264.864C50.0162 264.864 50.5068 264.741 50.9655 264.496C51.4242 264.251 51.7922 263.883 52.0695 263.392C52.3575 262.901 52.5015 262.304 52.5015 261.6C52.5015 260.896 52.3628 260.299 52.0855 259.808C51.8082 259.317 51.4455 258.955 50.9975 258.72C50.5495 258.475 50.0642 258.352 49.5415 258.352C49.0082 258.352 48.5175 258.475 48.0695 258.72C47.6322 258.955 47.2802 259.317 47.0135 259.808C46.7468 260.299 46.6135 260.896 46.6135 261.6C46.6135 262.315 46.7415 262.917 46.9975 263.408C47.2642 263.899 47.6162 264.267 48.0535 264.512C48.4908 264.747 48.9708 264.864 49.4935 264.864ZM57.3599 258.656C57.6159 258.155 57.9785 257.765 58.4479 257.488C58.9279 257.211 59.5092 257.072 60.1919 257.072V258.576H59.8079C58.1759 258.576 57.3599 259.461 57.3599 261.232V266H55.9039V257.232H57.3599V258.656ZM72.4166 257.072C73.0993 257.072 73.7073 257.216 74.2406 257.504C74.774 257.781 75.1953 258.203 75.5046 258.768C75.814 259.333 75.9686 260.021 75.9686 260.832V266H74.5286V261.04C74.5286 260.165 74.31 259.499 73.8726 259.04C73.446 258.571 72.8646 258.336 72.1286 258.336C71.3713 258.336 70.7686 258.581 70.3206 259.072C69.8726 259.552 69.6486 260.251 69.6486 261.168V266H68.2086V261.04C68.2086 260.165 67.99 259.499 67.5526 259.04C67.126 258.571 66.5446 258.336 65.8086 258.336C65.0513 258.336 64.4486 258.581 64.0006 259.072C63.5526 259.552 63.3286 260.251 63.3286 261.168V266H61.8726V257.232H63.3286V258.496C63.6166 258.037 64.0006 257.685 64.4806 257.44C64.9713 257.195 65.51 257.072 66.0966 257.072C66.8326 257.072 67.4833 257.237 68.0486 257.568C68.614 257.899 69.0353 258.384 69.3126 259.024C69.558 258.405 69.9633 257.925 70.5286 257.584C71.094 257.243 71.7233 257.072 72.4166 257.072Z" fill="#191A47"/>
<circle cx="295" cy="375" r="52" fill="white"/>
<path d="M265.288 405.112C264.253 405.112 263.309 404.872 262.456 404.392C261.603 403.901 260.925 403.224 260.424 402.36C259.933 401.485 259.688 400.504 259.688 399.416C259.688 398.328 259.933 397.352 260.424 396.488C260.925 395.613 261.603 394.936 262.456 394.456C263.309 393.965 264.253 393.72 265.288 393.72C266.333 393.72 267.283 393.965 268.136 394.456C268.989 394.936 269.661 395.608 270.152 396.472C270.643 397.336 270.888 398.317 270.888 399.416C270.888 400.515 270.643 401.496 270.152 402.36C269.661 403.224 268.989 403.901 268.136 404.392C267.283 404.872 266.333 405.112 265.288 405.112ZM265.288 403.848C266.067 403.848 266.765 403.667 267.384 403.304C268.013 402.941 268.504 402.424 268.856 401.752C269.219 401.08 269.4 400.301 269.4 399.416C269.4 398.52 269.219 397.741 268.856 397.08C268.504 396.408 268.019 395.891 267.4 395.528C266.781 395.165 266.077 394.984 265.288 394.984C264.499 394.984 263.795 395.165 263.176 395.528C262.557 395.891 262.067 396.408 261.704 397.08C261.352 397.741 261.176 398.52 261.176 399.416C261.176 400.301 261.352 401.08 261.704 401.752C262.067 402.424 262.557 402.941 263.176 403.304C263.805 403.667 264.509 403.848 265.288 403.848ZM274.266 397.848C274.554 397.347 274.981 396.931 275.546 396.6C276.122 396.259 276.789 396.088 277.546 396.088C278.325 396.088 279.029 396.275 279.658 396.648C280.298 397.021 280.799 397.549 281.162 398.232C281.525 398.904 281.706 399.688 281.706 400.584C281.706 401.469 281.525 402.259 281.162 402.952C280.799 403.645 280.298 404.184 279.658 404.568C279.029 404.952 278.325 405.144 277.546 405.144C276.799 405.144 276.138 404.979 275.562 404.648C274.997 404.307 274.565 403.885 274.266 403.384V409.16H272.81V396.232H274.266V397.848ZM280.218 400.584C280.218 399.923 280.085 399.347 279.818 398.856C279.551 398.365 279.189 397.992 278.73 397.736C278.282 397.48 277.786 397.352 277.242 397.352C276.709 397.352 276.213 397.485 275.754 397.752C275.306 398.008 274.943 398.387 274.666 398.888C274.399 399.379 274.266 399.949 274.266 400.6C274.266 401.261 274.399 401.843 274.666 402.344C274.943 402.835 275.306 403.213 275.754 403.48C276.213 403.736 276.709 403.864 277.242 403.864C277.786 403.864 278.282 403.736 278.73 403.48C279.189 403.213 279.551 402.835 279.818 402.344C280.085 401.843 280.218 401.256 280.218 400.584ZM285.399 397.432V402.6C285.399 403.027 285.489 403.331 285.671 403.512C285.852 403.683 286.167 403.768 286.615 403.768H287.687V405H286.375C285.564 405 284.956 404.813 284.551 404.44C284.145 404.067 283.943 403.453 283.943 402.6V397.432H282.807V396.232H283.943V394.024H285.399V396.232H287.687V397.432H285.399ZM290.203 394.808C289.925 394.808 289.691 394.712 289.499 394.52C289.307 394.328 289.211 394.093 289.211 393.816C289.211 393.539 289.307 393.304 289.499 393.112C289.691 392.92 289.925 392.824 290.203 392.824C290.469 392.824 290.693 392.92 290.875 393.112C291.067 393.304 291.163 393.539 291.163 393.816C291.163 394.093 291.067 394.328 290.875 394.52C290.693 394.712 290.469 394.808 290.203 394.808ZM290.907 396.232V405H289.451V396.232H290.907ZM303.932 396.072C304.615 396.072 305.223 396.216 305.756 396.504C306.29 396.781 306.711 397.203 307.02 397.768C307.33 398.333 307.484 399.021 307.484 399.832V405H306.044V400.04C306.044 399.165 305.826 398.499 305.388 398.04C304.962 397.571 304.38 397.336 303.644 397.336C302.887 397.336 302.284 397.581 301.836 398.072C301.388 398.552 301.164 399.251 301.164 400.168V405H299.724V400.04C299.724 399.165 299.506 398.499 299.068 398.04C298.642 397.571 298.06 397.336 297.324 397.336C296.567 397.336 295.964 397.581 295.516 398.072C295.068 398.552 294.844 399.251 294.844 400.168V405H293.388V396.232H294.844V397.496C295.132 397.037 295.516 396.685 295.996 396.44C296.487 396.195 297.026 396.072 297.612 396.072C298.348 396.072 298.999 396.237 299.564 396.568C300.13 396.899 300.551 397.384 300.828 398.024C301.074 397.405 301.479 396.925 302.044 396.584C302.61 396.243 303.239 396.072 303.932 396.072ZM310.625 394.808C310.347 394.808 310.113 394.712 309.921 394.52C309.729 394.328 309.633 394.093 309.633 393.816C309.633 393.539 309.729 393.304 309.921 393.112C310.113 392.92 310.347 392.824 310.625 392.824C310.891 392.824 311.115 392.92 311.297 393.112C311.489 393.304 311.585 393.539 311.585 393.816C311.585 394.093 311.489 394.328 311.297 394.52C311.115 394.712 310.891 394.808 310.625 394.808ZM311.329 396.232V405H309.873V396.232H311.329ZM314.898 403.8H319.202V405H313.234V403.8L317.49 397.416H313.266V396.232H319.17V397.416L314.898 403.8ZM329.091 400.28C329.091 400.557 329.075 400.851 329.043 401.16H322.035C322.089 402.024 322.382 402.701 322.915 403.192C323.459 403.672 324.115 403.912 324.883 403.912C325.513 403.912 326.035 403.768 326.451 403.48C326.878 403.181 327.177 402.787 327.347 402.296H328.915C328.681 403.139 328.211 403.827 327.507 404.36C326.803 404.883 325.929 405.144 324.883 405.144C324.051 405.144 323.305 404.957 322.643 404.584C321.993 404.211 321.481 403.683 321.107 403C320.734 402.307 320.547 401.507 320.547 400.6C320.547 399.693 320.729 398.899 321.091 398.216C321.454 397.533 321.961 397.011 322.611 396.648C323.273 396.275 324.03 396.088 324.883 396.088C325.715 396.088 326.451 396.269 327.091 396.632C327.731 396.995 328.222 397.496 328.563 398.136C328.915 398.765 329.091 399.48 329.091 400.28ZM327.587 399.976C327.587 399.421 327.465 398.947 327.219 398.552C326.974 398.147 326.638 397.843 326.211 397.64C325.795 397.427 325.331 397.32 324.819 397.32C324.083 397.32 323.454 397.555 322.931 398.024C322.419 398.493 322.126 399.144 322.051 399.976H327.587Z" fill="#191A47"/>
<path d="M279.689 344.115V345.222L279.446 345.326C278.554 345.721 277.682 346.828 277.466 347.846C277.361 348.31 277.38 349.355 277.492 349.819C277.636 350.401 277.787 350.726 278.148 351.225C278.587 351.841 279.171 352.311 280.384 353.025C282.161 354.063 282.338 354.236 282.292 354.887C282.22 355.988 280.948 356.542 280.141 355.829C279.859 355.579 279.702 355.199 279.649 354.672L279.604 354.215H278.305H277V354.811C277 355.981 277.348 356.86 278.148 357.719C278.548 358.148 278.79 358.341 279.184 358.542L279.689 358.805V359.906V361H281H282.312V359.906V358.805L282.817 358.542C283.788 358.037 284.614 356.95 284.902 355.808C285.047 355.247 285.027 354.188 284.87 353.648C284.64 352.851 284.03 352.049 283.217 351.46C283.047 351.335 282.43 350.955 281.846 350.608C281.263 350.269 280.692 349.902 280.581 349.805C280.24 349.515 280.082 349.175 280.082 348.753C280.082 348.414 280.102 348.359 280.338 348.116C280.587 347.846 280.699 347.812 281.151 347.846C281.407 347.86 281.748 348.089 281.84 348.296C281.886 348.393 281.938 348.601 281.958 348.746L282.004 349.023H283.302H284.607V348.552C284.607 347.272 283.873 346.032 282.758 345.423L282.312 345.181V344.087V343H281H279.689V344.115Z" fill="url(#paint17_linear_9368_10192)"/>
<path d="M307.625 343.127C306.176 343.549 305.051 344.702 304.678 346.137C304.531 346.692 304.538 347.74 304.678 348.296C304.826 348.858 305.22 349.604 305.6 350.026C305.761 350.209 305.902 350.391 305.902 350.42C305.902 350.455 304.707 353.387 303.251 356.932L300.6 363.388H300.15C299.615 363.388 298.982 363.542 298.497 363.781C298.202 363.936 298.131 363.943 298.019 363.866C297.949 363.817 297.274 363.282 296.514 362.684C295.375 361.777 295.15 361.573 295.185 361.454C295.213 361.376 295.241 360.961 295.262 360.539C295.319 359.224 294.953 358.261 294.06 357.368C293.23 356.538 292.274 356.144 291.064 356.144C289.855 356.144 288.898 356.538 288.069 357.368C287.239 358.198 286.845 359.154 286.845 360.364C286.845 361.158 286.979 361.721 287.337 362.382L287.611 362.895L284.988 366.777C283.259 369.337 282.33 370.659 282.267 370.638C282.211 370.617 281.824 370.596 281.395 370.575C280.08 370.526 279.117 370.891 278.224 371.785C277.394 372.614 277 373.571 277 374.78C277 375.99 277.394 376.946 278.224 377.776C279.053 378.606 280.01 379 281.219 379C282.429 379 283.385 378.606 284.215 377.776C285.045 376.946 285.439 375.983 285.439 374.794C285.439 374 285.34 373.571 285.002 372.889L284.742 372.354L285.544 371.159C285.98 370.498 287.091 368.859 287.998 367.509L289.658 365.047V372.024V379H291.064H292.471V371.7V364.407L292.949 364.161L293.42 363.915L294.869 365.075L296.317 366.236L296.219 366.587C296.092 367.073 296.106 368.163 296.24 368.69C296.521 369.794 297.372 370.849 298.392 371.37L298.94 371.651V375.322V379H300.347H301.753V375.322V371.651L302.302 371.37C303.321 370.849 304.172 369.794 304.453 368.69C304.517 368.444 304.566 367.973 304.566 367.607C304.566 367.241 304.517 366.77 304.453 366.524C304.313 365.976 303.926 365.237 303.567 364.829C303.377 364.611 303.3 364.471 303.328 364.386C303.356 364.323 304.271 362.094 305.361 359.428L307.343 354.597L307.365 366.798L307.379 379H308.785H310.192V365.125V351.256L310.74 350.975C311.76 350.455 312.611 349.4 312.892 348.296C313.032 347.74 313.039 346.692 312.892 346.137C312.512 344.674 311.324 343.485 309.861 343.106C309.284 342.958 308.173 342.965 307.625 343.127ZM309.46 346.052C309.643 346.158 309.84 346.355 309.945 346.538C310.318 347.171 310.1 348 309.46 348.373C308.567 348.893 307.449 348.254 307.449 347.213C307.449 346.172 308.567 345.532 309.46 346.052ZM291.739 359.203C292.618 359.724 292.618 361.004 291.739 361.524C290.846 362.044 289.728 361.404 289.728 360.364C289.728 359.323 290.846 358.683 291.739 359.203ZM301.022 366.447C302.196 367.136 301.704 368.943 300.347 368.943C299.313 368.943 298.666 367.825 299.186 366.932C299.559 366.292 300.389 366.074 301.022 366.447ZM281.894 373.62C283.069 374.309 282.577 376.117 281.219 376.117C280.186 376.117 279.539 374.998 280.059 374.105C280.432 373.465 281.262 373.247 281.894 373.62Z" fill="url(#paint18_linear_9368_10192)"/>
<defs>
<linearGradient id="paint0_linear_9368_10192" x1="225" y1="139.5" x2="225" y2="194.5" gradientUnits="userSpaceOnUse">
<stop stop-color="#00BDA4"/>
<stop offset="1" stop-color="#00A4BC"/>
</linearGradient>
<linearGradient id="paint1_linear_9368_10192" x1="225.5" y1="139.5" x2="225.5" y2="167" gradientUnits="userSpaceOnUse">
<stop stop-color="#00BDA4"/>
<stop offset="1" stop-color="#00A4BC"/>
</linearGradient>
<linearGradient id="paint2_linear_9368_10192" x1="236.688" y1="167" x2="236.688" y2="180.75" gradientUnits="userSpaceOnUse">
<stop stop-color="#00BDA4"/>
<stop offset="1" stop-color="#00A4BC"/>
</linearGradient>
<linearGradient id="paint3_linear_9368_10192" x1="213.312" y1="167" x2="213.312" y2="180.75" gradientUnits="userSpaceOnUse">
<stop stop-color="#00BDA4"/>
<stop offset="1" stop-color="#00A4BC"/>
</linearGradient>
<linearGradient id="paint4_linear_9368_10192" x1="225.5" y1="180.75" x2="225.5" y2="194.5" gradientUnits="userSpaceOnUse">
<stop stop-color="#00BDA4"/>
<stop offset="1" stop-color="#00A4BC"/>
</linearGradient>
<linearGradient id="paint5_linear_9368_10192" x1="242.875" y1="153.25" x2="242.875" y2="160.125" gradientUnits="userSpaceOnUse">
<stop stop-color="#00BDA4"/>
<stop offset="1" stop-color="#00A4BC"/>
</linearGradient>
<linearGradient id="paint6_linear_9368_10192" x1="207.125" y1="153.25" x2="207.125" y2="160.125" gradientUnits="userSpaceOnUse">
<stop stop-color="#00BDA4"/>
<stop offset="1" stop-color="#00A4BC"/>
</linearGradient>
<linearGradient id="paint7_linear_9368_10192" x1="302.438" y1="22" x2="302.438" y2="35.6758" gradientUnits="userSpaceOnUse">
<stop stop-color="#00BDA4"/>
<stop offset="1" stop-color="#00A4BC"/>
</linearGradient>
<linearGradient id="paint8_linear_9368_10192" x1="320.156" y1="22" x2="320.156" y2="41.6875" gradientUnits="userSpaceOnUse">
<stop stop-color="#00BDA4"/>
<stop offset="1" stop-color="#00A4BC"/>
</linearGradient>
<linearGradient id="paint9_linear_9368_10192" x1="320.156" y1="30.4375" x2="320.156" y2="33.25" gradientUnits="userSpaceOnUse">
<stop stop-color="#00BDA4"/>
<stop offset="1" stop-color="#00A4BC"/>
</linearGradient>
<linearGradient id="paint10_linear_9368_10192" x1="303.844" y1="38.3125" x2="303.844" y2="58" gradientUnits="userSpaceOnUse">
<stop stop-color="#00BDA4"/>
<stop offset="1" stop-color="#00A4BC"/>
</linearGradient>
<linearGradient id="paint11_linear_9368_10192" x1="303.844" y1="46.75" x2="303.844" y2="49.5625" gradientUnits="userSpaceOnUse">
<stop stop-color="#00BDA4"/>
<stop offset="1" stop-color="#00A4BC"/>
</linearGradient>
<linearGradient id="paint12_linear_9368_10192" x1="321.562" y1="44.3594" x2="321.562" y2="58" gradientUnits="userSpaceOnUse">
<stop stop-color="#00BDA4"/>
<stop offset="1" stop-color="#00A4BC"/>
</linearGradient>
<linearGradient id="paint13_linear_9368_10192" x1="61.5665" y1="204" x2="61.5665" y2="226.846" gradientUnits="userSpaceOnUse">
<stop stop-color="#00BDA4"/>
<stop offset="1" stop-color="#00A4BC"/>
</linearGradient>
<linearGradient id="paint14_linear_9368_10192" x1="49.0886" y1="209.834" x2="49.0886" y2="245.996" gradientUnits="userSpaceOnUse">
<stop stop-color="#00BDA4"/>
<stop offset="1" stop-color="#00A4BC"/>
</linearGradient>
<linearGradient id="paint15_linear_9368_10192" x1="49.0626" y1="216.422" x2="49.0626" y2="239.41" gradientUnits="userSpaceOnUse">
<stop stop-color="#00BDA4"/>
<stop offset="1" stop-color="#00A4BC"/>
</linearGradient>
<linearGradient id="paint16_linear_9368_10192" x1="48.3736" y1="224.426" x2="48.3736" y2="232.866" gradientUnits="userSpaceOnUse">
<stop stop-color="#00BDA4"/>
<stop offset="1" stop-color="#00A4BC"/>
</linearGradient>
<linearGradient id="paint17_linear_9368_10192" x1="281" y1="343" x2="281" y2="361" gradientUnits="userSpaceOnUse">
<stop stop-color="#00BDA4"/>
<stop offset="1" stop-color="#00A4BC"/>
</linearGradient>
<linearGradient id="paint18_linear_9368_10192" x1="295" y1="343" x2="295" y2="379" gradientUnits="userSpaceOnUse">
<stop stop-color="#00BDA4"/>
<stop offset="1" stop-color="#00A4BC"/>
</linearGradient>
</defs>
</svg>
