<svg xmlns="http://www.w3.org/2000/svg" width="720" height="540" fill="none" xmlns:v="https://vecta.io/nano"><mask id="A" maskUnits="userSpaceOnUse" x="0" y="0" width="720" height="540" mask-type="alpha"><path fill="#093048" d="M0 0h720v540H0z"/></mask><g mask="url(#A)"><mask id="B" maskUnits="userSpaceOnUse" x="-100" y="-19" width="162" height="1243" mask-type="alpha"><path d="M62-19h-162v1243H62V-19z" fill="#d9d9d9"/></mask><g mask="url(#B)"><path d="M60.5 1284V978.102V673.5C60.5 642.572 35.428 617.5 4.5 617.5H-19.5C-50.4279 617.5 -75.5 592.428 -75.5 561.5V512V349.5C-75.5 318.572 -100.572 293.5 -131.5 293.5H-252C-282.928 293.5 -308 268.428 -308 237.5V151.5C-308 120.572 -282.928 95.5 -252 95.5H-1.5C29.428 95.5 54.5 70.4279 54.5 39.5V-55" stroke="url(#D)" stroke-width="2"/></g><mask id="C" maskUnits="userSpaceOnUse" x="-80" y="-132" width="162" height="1243" mask-type="alpha"><path d="M82-132H-80v1243H82V-132z" fill="#d9d9d9"/></mask><g mask="url(#C)"><path d="M80.5 1171V865.102V560.5C80.5 529.572 55.428 504.5 24.5 504.5H0.5C-30.4279 504.5 -55.5 479.428 -55.5 448.5V399V236.5C-55.5 205.572 -80.5721 180.5 -111.5 180.5H-232C-262.928 180.5 -288 155.428 -288 124.5V38.5C-288 7.572 -262.928 -17.5 -232 -17.5H18.5C49.428 -17.5 74.5 -42.5721 74.5 -73.5V-168" stroke="url(#E)" stroke-width="2"/></g></g><defs><linearGradient id="D" x1="365.5" y1="487" x2="-360.631" y2="174.198" gradientUnits="userSpaceOnUse"><stop stop-color="#7ebcff"/><stop offset=".507" stop-color="#63aeff"/><stop offset="1" stop-color="#014590"/></linearGradient><linearGradient id="E" x1="385.5" y1="374" x2="-340.631" y2="61.198" gradientUnits="userSpaceOnUse"><stop stop-color="#9acbff"/><stop offset=".507" stop-color="#1886ff"/><stop offset="1" stop-color="#0255b1"/></linearGradient></defs></svg>