<svg width="151" height="66" viewBox="0 0 151 66" fill="none" xmlns="http://www.w3.org/2000/svg">
<path d="M21.3125 12.375L9.625 19.25V33V46.75L21.3125 53.625L33 60.5L44.6876 53.625L56.375 46.75V33V19.25L44.6876 12.375L33 5.5L21.3125 12.375Z" stroke="url(#paint0_linear_9232_8337)" stroke-width="5" stroke-linecap="round" stroke-linejoin="round"/>
<path d="M33 5.5V33" stroke="url(#paint1_linear_9232_8337)" stroke-width="5" stroke-linecap="round" stroke-linejoin="round"/>
<path d="M56.375 46.75L33 33" stroke="url(#paint2_linear_9232_8337)" stroke-width="5" stroke-linecap="round" stroke-linejoin="round"/>
<path d="M9.625 46.75L33 33" stroke="url(#paint3_linear_9232_8337)" stroke-width="5" stroke-linecap="round" stroke-linejoin="round"/>
<path d="M33 60.5V46.75" stroke="url(#paint4_linear_9232_8337)" stroke-width="5" stroke-linecap="round" stroke-linejoin="round"/>
<path d="M56.375 19.25L45.375 26.125" stroke="url(#paint5_linear_9232_8337)" stroke-width="5" stroke-linecap="round" stroke-linejoin="round"/>
<path d="M9.625 19.25L20.625 26.125" stroke="url(#paint6_linear_9232_8337)" stroke-width="5" stroke-linecap="round" stroke-linejoin="round"/>
<path d="M72.4347 40V25.4545H77.8892C79.0066 25.4545 79.9441 25.6629 80.7017 26.0795C81.464 26.4962 82.0393 27.0691 82.4276 27.7983C82.8205 28.5227 83.017 29.3466 83.017 30.2699C83.017 31.2027 82.8205 32.0312 82.4276 32.7557C82.0346 33.4801 81.4545 34.0507 80.6875 34.4673C79.9205 34.8793 78.9759 35.0852 77.8537 35.0852H74.2386V32.919H77.4986C78.152 32.919 78.687 32.8054 79.1037 32.5781C79.5204 32.3509 79.8281 32.0384 80.027 31.6406C80.2306 31.2429 80.3324 30.786 80.3324 30.2699C80.3324 29.7538 80.2306 29.2992 80.027 28.9062C79.8281 28.5133 79.518 28.2079 79.0966 27.9901C78.6799 27.7675 78.1425 27.6562 77.4844 27.6562H75.0696V40H72.4347ZM85.1921 40V29.0909H87.7631V40H85.1921ZM86.4847 27.5426C86.0775 27.5426 85.7272 27.4077 85.4336 27.1378C85.14 26.8632 84.9933 26.5341 84.9933 26.1506C84.9933 25.7623 85.14 25.4332 85.4336 25.1634C85.7272 24.8887 86.0775 24.7514 86.4847 24.7514C86.8967 24.7514 87.247 24.8887 87.5359 25.1634C87.8294 25.4332 87.9762 25.7623 87.9762 26.1506C87.9762 26.5341 87.8294 26.8632 87.5359 27.1378C87.247 27.4077 86.8967 27.5426 86.4847 27.5426ZM100.151 29.0909L96.2663 40H93.4254L89.5405 29.0909H92.282L94.7891 37.1946H94.9027L97.4169 29.0909H100.151ZM106.318 40.2131C105.252 40.2131 104.329 39.9787 103.548 39.5099C102.767 39.0412 102.161 38.3854 101.73 37.5426C101.304 36.6998 101.091 35.715 101.091 34.5881C101.091 33.4612 101.304 32.474 101.73 31.6264C102.161 30.7789 102.767 30.1207 103.548 29.652C104.329 29.1832 105.252 28.9489 106.318 28.9489C107.383 28.9489 108.306 29.1832 109.088 29.652C109.869 30.1207 110.473 30.7789 110.899 31.6264C111.33 32.474 111.545 33.4612 111.545 34.5881C111.545 35.715 111.33 36.6998 110.899 37.5426C110.473 38.3854 109.869 39.0412 109.088 39.5099C108.306 39.9787 107.383 40.2131 106.318 40.2131ZM106.332 38.1534C106.91 38.1534 107.393 37.9948 107.781 37.6776C108.169 37.3556 108.458 36.9247 108.647 36.3849C108.842 35.8452 108.939 35.2438 108.939 34.581C108.939 33.9134 108.842 33.3097 108.647 32.7699C108.458 32.2254 108.169 31.7921 107.781 31.4702C107.393 31.1482 106.91 30.9872 106.332 30.9872C105.74 30.9872 105.248 31.1482 104.855 31.4702C104.467 31.7921 104.175 32.2254 103.981 32.7699C103.792 33.3097 103.697 33.9134 103.697 34.581C103.697 35.2438 103.792 35.8452 103.981 36.3849C104.175 36.9247 104.467 37.3556 104.855 37.6776C105.248 37.9948 105.74 38.1534 106.332 38.1534ZM119.175 29.0909V31.0795H112.903V29.0909H119.175ZM114.452 26.4773H117.023V36.7188C117.023 37.0644 117.075 37.3295 117.179 37.5142C117.288 37.6941 117.43 37.8172 117.605 37.8835C117.78 37.9498 117.974 37.983 118.188 37.983C118.348 37.983 118.495 37.9711 118.628 37.9474C118.765 37.9238 118.869 37.9025 118.94 37.8835L119.374 39.8935C119.236 39.9408 119.04 39.9929 118.784 40.0497C118.533 40.1065 118.225 40.1397 117.861 40.1491C117.217 40.1681 116.637 40.071 116.121 39.858C115.605 39.6402 115.195 39.304 114.892 38.8494C114.594 38.3949 114.447 37.8267 114.452 37.1449V26.4773ZM126.772 29.0909V31.0795H120.501V29.0909H126.772ZM122.049 26.4773H124.62V36.7188C124.62 37.0644 124.672 37.3295 124.777 37.5142C124.886 37.6941 125.028 37.8172 125.203 37.8835C125.378 37.9498 125.572 37.983 125.785 37.983C125.946 37.983 126.093 37.9711 126.225 37.9474C126.363 37.9238 126.467 37.9025 126.538 37.8835L126.971 39.8935C126.834 39.9408 126.637 39.9929 126.382 40.0497C126.131 40.1065 125.823 40.1397 125.458 40.1491C124.815 40.1681 124.234 40.071 123.718 39.858C123.202 39.6402 122.793 39.304 122.49 38.8494C122.191 38.3949 122.045 37.8267 122.049 37.1449V26.4773ZM130.506 40.1562C130.076 40.1562 129.706 40.0047 129.398 39.7017C129.091 39.3987 128.939 39.0294 128.944 38.5938C128.939 38.1676 129.091 37.803 129.398 37.5C129.706 37.197 130.076 37.0455 130.506 37.0455C130.923 37.0455 131.285 37.197 131.593 37.5C131.906 37.803 132.064 38.1676 132.069 38.5938C132.064 38.8826 131.988 39.1454 131.842 39.3821C131.7 39.6188 131.51 39.8082 131.273 39.9503C131.041 40.0876 130.786 40.1562 130.506 40.1562ZM137.863 40.2202C137.171 40.2202 136.549 40.0971 135.995 39.8509C135.445 39.5999 135.01 39.2306 134.688 38.7429C134.371 38.2552 134.212 37.6539 134.212 36.9389C134.212 36.3234 134.326 35.8144 134.553 35.4119C134.78 35.0095 135.09 34.6875 135.483 34.446C135.876 34.2045 136.319 34.0223 136.811 33.8991C137.309 33.7713 137.822 33.679 138.353 33.6222C138.992 33.5559 139.51 33.4967 139.908 33.4446C140.306 33.3878 140.595 33.3026 140.775 33.1889C140.959 33.0705 141.051 32.8883 141.051 32.642V32.5994C141.051 32.0644 140.893 31.6501 140.576 31.3565C140.258 31.063 139.801 30.9162 139.205 30.9162C138.575 30.9162 138.076 31.0535 137.706 31.3281C137.342 31.6027 137.096 31.9271 136.968 32.3011L134.567 31.9602C134.757 31.2973 135.069 30.7434 135.505 30.2983C135.94 29.8485 136.473 29.5123 137.103 29.2898C137.732 29.0625 138.428 28.9489 139.191 28.9489C139.716 28.9489 140.239 29.0104 140.76 29.1335C141.281 29.2566 141.757 29.4602 142.188 29.7443C142.619 30.0237 142.964 30.4048 143.225 30.8878C143.49 31.3707 143.623 31.9744 143.623 32.6989V40H141.151V38.5014H141.066C140.909 38.8045 140.689 39.0885 140.405 39.3537C140.126 39.6141 139.773 39.8248 139.347 39.9858C138.926 40.142 138.431 40.2202 137.863 40.2202ZM138.53 38.331C139.046 38.331 139.494 38.2292 139.873 38.0256C140.251 37.8172 140.542 37.5426 140.746 37.2017C140.954 36.8608 141.059 36.4891 141.059 36.0866V34.8011C140.978 34.8674 140.841 34.929 140.647 34.9858C140.457 35.0426 140.244 35.0923 140.007 35.1349C139.771 35.1776 139.536 35.2154 139.304 35.2486C139.072 35.2817 138.871 35.3101 138.701 35.3338C138.317 35.3859 137.974 35.4711 137.671 35.5895C137.368 35.7079 137.129 35.8736 136.953 36.0866C136.778 36.295 136.691 36.5649 136.691 36.8963C136.691 37.3698 136.864 37.7273 137.209 37.9688C137.555 38.2102 137.995 38.331 138.53 38.331ZM146.208 40V29.0909H148.779V40H146.208ZM147.5 27.5426C147.093 27.5426 146.743 27.4077 146.449 27.1378C146.156 26.8632 146.009 26.5341 146.009 26.1506C146.009 25.7623 146.156 25.4332 146.449 25.1634C146.743 24.8887 147.093 24.7514 147.5 24.7514C147.912 24.7514 148.263 24.8887 148.551 25.1634C148.845 25.4332 148.992 25.7623 148.992 26.1506C148.992 26.5341 148.845 26.8632 148.551 27.1378C148.263 27.4077 147.912 27.5426 147.5 27.5426Z" fill="#191A47"/>
<defs>
<linearGradient id="paint0_linear_9232_8337" x1="33" y1="5.5" x2="33" y2="60.5" gradientUnits="userSpaceOnUse">
<stop stop-color="#00BDA4"/>
<stop offset="1" stop-color="#00A4BC"/>
</linearGradient>
<linearGradient id="paint1_linear_9232_8337" x1="33.5" y1="5.5" x2="33.5" y2="33" gradientUnits="userSpaceOnUse">
<stop stop-color="#00BDA4"/>
<stop offset="1" stop-color="#00A4BC"/>
</linearGradient>
<linearGradient id="paint2_linear_9232_8337" x1="44.6875" y1="33" x2="44.6875" y2="46.75" gradientUnits="userSpaceOnUse">
<stop stop-color="#00BDA4"/>
<stop offset="1" stop-color="#00A4BC"/>
</linearGradient>
<linearGradient id="paint3_linear_9232_8337" x1="21.3125" y1="33" x2="21.3125" y2="46.75" gradientUnits="userSpaceOnUse">
<stop stop-color="#00BDA4"/>
<stop offset="1" stop-color="#00A4BC"/>
</linearGradient>
<linearGradient id="paint4_linear_9232_8337" x1="33.5" y1="46.75" x2="33.5" y2="60.5" gradientUnits="userSpaceOnUse">
<stop stop-color="#00BDA4"/>
<stop offset="1" stop-color="#00A4BC"/>
</linearGradient>
<linearGradient id="paint5_linear_9232_8337" x1="50.875" y1="19.25" x2="50.875" y2="26.125" gradientUnits="userSpaceOnUse">
<stop stop-color="#00BDA4"/>
<stop offset="1" stop-color="#00A4BC"/>
</linearGradient>
<linearGradient id="paint6_linear_9232_8337" x1="15.125" y1="19.25" x2="15.125" y2="26.125" gradientUnits="userSpaceOnUse">
<stop stop-color="#00BDA4"/>
<stop offset="1" stop-color="#00A4BC"/>
</linearGradient>
</defs>
</svg>
