<svg width="56" height="56" viewBox="0 0 56 56" fill="none" xmlns="http://www.w3.org/2000/svg">
<path d="M37.8247 10.3063L33.2474 13.6038V16.9671V20.3302L29.7038 23.874L26.1519 27.4259L27.3659 28.6317L28.5718 29.8457L32.1237 26.2939L35.6673 22.7501H39.0306H42.3937L45.6749 18.1976C47.4796 15.6957 48.9643 13.6121 48.9807 13.5629C49.0053 13.5055 47.9881 13.4809 45.7652 13.4809H42.5168V10.2407C42.5168 8.46062 42.4922 7.00049 42.4594 7.00049C42.4183 7.00049 40.3348 8.48522 37.8247 10.3063ZM40.7941 16.8605L42.4348 16.8851L41.5324 18.1319L40.6219 19.387H38.6122H36.6107V17.3855V15.3758L37.8657 14.4652L39.1126 13.5629L39.1372 15.2034L39.1535 16.844L40.7941 16.8605Z" fill="url(#paint0_linear_9220_4840)"/>
<path d="M22.7062 12.9558C18.6868 13.4889 15.1431 15.2443 12.2803 18.1072C10.1639 20.2318 8.73658 22.5532 7.82605 25.3751C7.23544 27.2207 6.99756 28.7874 6.99756 30.9121C6.99756 32.6265 7.1288 33.7667 7.49793 35.2924C9.24516 42.4618 15.3481 47.9167 22.6652 48.8682C23.9448 49.0324 26.2171 49.0405 27.464 48.8765C32.8615 48.171 37.5454 45.1278 40.5066 40.4274C42.8527 36.7033 43.7222 31.8307 42.8445 27.3848C42.7542 26.9336 42.6394 26.4249 42.5983 26.2527L42.5081 25.9492H40.7363C39.2024 25.9492 38.9808 25.9656 39.0219 26.0723C39.145 26.3922 39.4977 27.8113 39.6125 28.4183C39.793 29.4109 39.8504 31.4124 39.7274 32.528C39.6125 33.5943 39.2024 35.3006 38.8333 36.2275C36.9384 40.9853 32.8697 44.3812 27.8331 45.4066C27.0045 45.5706 26.6682 45.5953 25.003 45.5871C23.2558 45.5871 23.0425 45.5706 22.1073 45.3574C17.4974 44.332 13.8307 41.4692 11.8373 37.3267C10.8776 35.3498 10.451 33.6272 10.3854 31.4452C10.328 29.8538 10.4346 28.8285 10.7709 27.4257C12.2392 21.4212 17.3332 16.9424 23.4772 16.2697C24.5847 16.1467 26.578 16.2041 27.5788 16.3846C28.1858 16.4994 29.6049 16.8521 29.9248 16.9752C30.0315 17.0162 30.0479 16.7947 30.0479 15.2608V13.4889L29.7443 13.3986C29.1866 13.2429 27.8085 12.9886 27.0538 12.9065C26.0366 12.7916 23.6988 12.8162 22.7062 12.9558Z" fill="url(#paint1_linear_9220_4840)"/>
<path d="M23.576 19.469C19.4581 20.0514 16.0702 22.6271 14.4543 26.4169C13.4454 28.7711 13.273 31.6667 14.0031 34.1522C15.2089 38.2947 18.5148 41.3298 22.8294 42.2485C23.9287 42.4782 26.365 42.4618 27.4969 42.2076C32.107 41.174 35.4457 37.7534 36.4218 33.0859C36.5284 32.569 36.5695 32.0113 36.5695 30.912C36.5612 29.3781 36.4792 28.7301 36.1019 27.5161L35.9379 26.9911L34.5597 28.3692L33.1816 29.7472L33.2227 30.5429C33.4277 34.1522 31.0242 37.5975 27.5462 38.6884C26.1107 39.1396 24.4783 39.1888 23.0756 38.8361C22.2307 38.6147 20.91 37.9912 20.2373 37.4827C19.5975 37.0069 18.6378 35.9979 18.2604 35.4073C17.8174 34.71 17.3663 33.7011 17.1613 32.9218C16.9972 32.323 16.9725 32.0359 16.9725 30.8711C16.9725 29.6406 16.9972 29.4519 17.2023 28.7794C17.6699 27.229 18.4081 26.0149 19.5155 24.9814C21.1315 23.4638 23.2396 22.6763 25.3806 22.7748L26.2583 22.8075L27.6282 21.4376L28.9981 20.0596L28.6043 19.9283C27.6118 19.6001 26.7177 19.4607 25.4134 19.4279C24.6916 19.4115 23.8631 19.4279 23.576 19.469Z" fill="url(#paint2_linear_9220_4840)"/>
<path d="M21.2303 27.7705C20.1394 29.0338 19.8194 31.1666 20.4675 32.7662C20.9432 33.9475 21.7389 34.8005 22.8709 35.342C23.7569 35.7767 24.4787 35.9161 25.4467 35.8505C26.513 35.7767 27.5466 35.3666 28.2439 34.7431L28.613 34.4068L27.4318 33.2255L26.2505 32.0361L25.9388 32.2412C24.5361 33.1681 22.83 31.4619 23.7569 30.0592L23.9619 29.7475L22.8054 28.5909C22.1654 27.951 21.6158 27.426 21.583 27.426C21.5584 27.426 21.3944 27.5819 21.2303 27.7705Z" fill="url(#paint3_linear_9220_4840)"/>
<defs>
<linearGradient id="paint0_linear_9220_4840" x1="37.5665" y1="7.00049" x2="37.5665" y2="29.8457" gradientUnits="userSpaceOnUse">
<stop stop-color="#00BDA4"/>
<stop offset="1" stop-color="#00A4BC"/>
</linearGradient>
<linearGradient id="paint1_linear_9220_4840" x1="25.0886" y1="12.8337" x2="25.0886" y2="48.9955" gradientUnits="userSpaceOnUse">
<stop stop-color="#00BDA4"/>
<stop offset="1" stop-color="#00A4BC"/>
</linearGradient>
<linearGradient id="paint2_linear_9220_4840" x1="25.0626" y1="19.4216" x2="25.0626" y2="42.4102" gradientUnits="userSpaceOnUse">
<stop stop-color="#00BDA4"/>
<stop offset="1" stop-color="#00A4BC"/>
</linearGradient>
<linearGradient id="paint3_linear_9220_4840" x1="24.3736" y1="27.426" x2="24.3736" y2="35.8659" gradientUnits="userSpaceOnUse">
<stop stop-color="#00BDA4"/>
<stop offset="1" stop-color="#00A4BC"/>
</linearGradient>
</defs>
</svg>
