<svg width="48" height="48" viewBox="0 0 48 48" fill="none" xmlns="http://www.w3.org/2000/svg">
<path d="M8.68879 7.11462V8.22231L8.44614 8.32615C7.55425 8.72077 6.68203 9.82846 6.46562 10.8462C6.36069 11.31 6.38037 12.3554 6.49185 12.8192C6.63613 13.4008 6.78696 13.7262 7.14765 14.2246C7.58704 14.8408 8.17071 15.3115 9.38394 16.0246C11.1612 17.0631 11.3382 17.2362 11.2923 17.8869C11.2202 18.9877 9.94793 19.5415 9.14129 18.8285C8.8593 18.5792 8.7019 18.1985 8.64944 17.6723L8.60353 17.2154H7.30505H6V17.8108C6 18.9808 6.34758 19.86 7.14765 20.7185C7.54769 21.1477 7.79034 21.3415 8.18382 21.5423L8.68879 21.8054V22.9062V24H10.0004H11.312V22.9062V21.8054L11.817 21.5423C12.7876 21.0369 13.6139 19.95 13.9024 18.8077C14.0467 18.2469 14.027 17.1877 13.8696 16.6477C13.6401 15.8515 13.0302 15.0485 12.217 14.46C12.0465 14.3354 11.43 13.9546 10.8464 13.6085C10.2627 13.2692 9.69217 12.9023 9.58068 12.8054C9.23966 12.5146 9.08227 12.1754 9.08227 11.7531C9.08227 11.4138 9.10194 11.3585 9.33803 11.1162C9.58724 10.8462 9.69872 10.8115 10.1512 10.8462C10.407 10.86 10.748 11.0885 10.8398 11.2962C10.8857 11.3931 10.9382 11.6008 10.9579 11.7462L11.0038 12.0231H12.3023H13.6073V11.5523C13.6073 10.2715 12.8728 9.03231 11.7579 8.42308L11.312 8.18077V7.08692V6H10.0004H8.68879V7.11462Z" fill="url(#paint0_linear_9220_4831)"/>
<path d="M36.6248 6.12683C35.1762 6.54878 34.0511 7.70213 33.6784 9.13677C33.5307 9.69234 33.5377 10.7402 33.6784 11.2958C33.826 11.8584 34.2198 12.6038 34.5996 13.0258C34.7613 13.2086 34.902 13.3915 34.902 13.4196C34.902 13.4548 33.7065 16.3874 32.2508 19.9318L29.5997 26.3877H29.1497C28.6152 26.3877 27.9824 26.5424 27.4971 26.7815C27.2018 26.9362 27.1315 26.9433 27.019 26.8659C26.9486 26.8167 26.2736 26.2822 25.5141 25.6844C24.3749 24.7772 24.1499 24.5733 24.185 24.4537C24.2132 24.3764 24.2413 23.9614 24.2624 23.5395C24.3186 22.2244 23.953 21.2609 23.0599 20.3678C22.2301 19.538 21.2737 19.1441 20.0642 19.1441C18.8547 19.1441 17.8983 19.538 17.0685 20.3678C16.2387 21.1976 15.8449 22.1541 15.8449 23.3637C15.8449 24.1584 15.9786 24.721 16.3372 25.382L16.6114 25.8954L13.9885 29.7774C12.2586 32.3372 11.3303 33.6594 11.267 33.6383C11.2108 33.6172 10.824 33.5961 10.3951 33.575C9.08006 33.5257 8.11666 33.8914 7.22359 34.7846C6.3938 35.6144 6 36.5709 6 37.7805C6 38.9901 6.3938 39.9465 7.22359 40.7763C8.05337 41.6062 9.00974 42 10.2193 42C11.4288 42 12.3852 41.6062 13.2149 40.7763C14.0447 39.9465 14.4385 38.983 14.4385 37.7945C14.4385 36.9998 14.3401 36.5709 14.0025 35.8887L13.7423 35.3542L14.544 34.1587C14.98 33.4976 16.0911 31.859 16.9982 30.5088L18.6578 28.0474V35.0237V42H20.0642H21.4706V34.7002V27.4074L21.9488 27.1613L22.42 26.9151L23.8686 28.0755L25.3172 29.2359L25.2187 29.5875C25.0922 30.0728 25.1062 31.1628 25.2398 31.6902C25.5211 32.7944 26.372 33.8492 27.3917 34.3697L27.9402 34.651V38.322V42H29.3466H30.753V38.322V34.651L31.3015 34.3697C32.3212 33.8492 33.1721 32.7944 33.4533 31.6902C33.5166 31.4441 33.5659 30.9729 33.5659 30.6072C33.5659 30.2415 33.5166 29.7703 33.4533 29.5242C33.3127 28.9757 32.9259 28.2372 32.5673 27.8294C32.3774 27.6113 32.3001 27.4707 32.3282 27.3863C32.3563 27.323 33.2705 25.0937 34.3605 22.4283L36.3435 17.597L36.3646 29.7985L36.3787 42H37.7851H39.1915V28.1247V14.2565L39.74 13.9752C40.7597 13.4548 41.6106 12.3999 41.8919 11.2958C42.0325 10.7402 42.0395 9.69234 41.8919 9.13677C41.5121 7.674 40.3237 6.48549 38.861 6.10573C38.2844 5.95805 37.1733 5.96508 36.6248 6.12683ZM38.4602 9.05238C38.643 9.15787 38.8399 9.35478 38.9454 9.53763C39.3181 10.1706 39.1001 11.0004 38.4602 11.3731C37.5671 11.8935 36.449 11.2536 36.449 10.2128C36.449 9.17193 37.5671 8.53197 38.4602 9.05238ZM20.7393 22.2033C21.6183 22.7237 21.6183 24.0036 20.7393 24.524C19.8462 25.0445 18.7281 24.4045 18.7281 23.3637C18.7281 22.3229 19.8462 21.6829 20.7393 22.2033ZM30.0217 29.4469C31.196 30.136 30.7038 31.9434 29.3466 31.9434C28.3129 31.9434 27.6659 30.8252 28.1863 29.9321C28.559 29.2921 29.3888 29.0741 30.0217 29.4469ZM10.8943 36.6201C12.0687 37.3093 11.5765 39.1166 10.2193 39.1166C9.18554 39.1166 8.53859 37.9985 9.05897 37.1053C9.43167 36.4654 10.2615 36.2474 10.8943 36.6201Z" fill="url(#paint1_linear_9220_4831)"/>
<defs>
<linearGradient id="paint0_linear_9220_4831" x1="10" y1="6" x2="10" y2="24" gradientUnits="userSpaceOnUse">
<stop stop-color="#00BDA4"/>
<stop offset="1" stop-color="#00A4BC"/>
</linearGradient>
<linearGradient id="paint1_linear_9220_4831" x1="24" y1="6" x2="24" y2="42" gradientUnits="userSpaceOnUse">
<stop stop-color="#00BDA4"/>
<stop offset="1" stop-color="#00A4BC"/>
</linearGradient>
</defs>
</svg>
