<svg width="194" height="49" viewBox="0 0 194 49" fill="none" xmlns="http://www.w3.org/2000/svg">
<path d="M26 26C31.1667 33.6667 46.8 46.7 68 37.5" stroke="#191A47" stroke-width="2"/>
<path d="M82.1821 43.112C81.4461 43.112 80.7847 42.984 80.1981 42.728C79.6221 42.4613 79.1687 42.0987 78.8381 41.64C78.5074 41.1707 78.3367 40.632 78.3261 40.024H79.8781C79.9314 40.5467 80.1447 40.9893 80.5181 41.352C80.9021 41.704 81.4567 41.88 82.1821 41.88C82.8754 41.88 83.4194 41.7093 83.8141 41.368C84.2194 41.016 84.4221 40.568 84.4221 40.024C84.4221 39.5973 84.3047 39.2507 84.0701 38.984C83.8354 38.7173 83.5421 38.5147 83.1901 38.376C82.8381 38.2373 82.3634 38.088 81.7661 37.928C81.0301 37.736 80.4381 37.544 79.9901 37.352C79.5527 37.16 79.1741 36.8613 78.8541 36.456C78.5447 36.04 78.3901 35.4853 78.3901 34.792C78.3901 34.184 78.5447 33.6453 78.8541 33.176C79.1634 32.7067 79.5954 32.344 80.1501 32.088C80.7154 31.832 81.3607 31.704 82.0861 31.704C83.1314 31.704 83.9847 31.9653 84.6461 32.488C85.3181 33.0107 85.6967 33.704 85.7821 34.568H84.1821C84.1287 34.1413 83.9047 33.768 83.5101 33.448C83.1154 33.1173 82.5927 32.952 81.9421 32.952C81.3341 32.952 80.8381 33.112 80.4541 33.432C80.0701 33.7413 79.8781 34.1787 79.8781 34.744C79.8781 35.1493 79.9901 35.48 80.2141 35.736C80.4487 35.992 80.7314 36.1893 81.0621 36.328C81.4034 36.456 81.8781 36.6053 82.4861 36.776C83.2221 36.9787 83.8141 37.1813 84.2621 37.384C84.7101 37.576 85.0941 37.88 85.4141 38.296C85.7341 38.7013 85.8941 39.256 85.8941 39.96C85.8941 40.504 85.7501 41.016 85.4621 41.496C85.1741 41.976 84.7474 42.3653 84.1821 42.664C83.6167 42.9627 82.9501 43.112 82.1821 43.112ZM87.4927 38.584C87.4927 37.688 87.674 36.904 88.0367 36.232C88.3994 35.5493 88.8954 35.0213 89.5247 34.648C90.1647 34.2747 90.874 34.088 91.6527 34.088C92.4207 34.088 93.0874 34.2533 93.6527 34.584C94.218 34.9147 94.6394 35.3307 94.9167 35.832V34.232H96.3887V43H94.9167V41.368C94.6287 41.88 94.1967 42.3067 93.6207 42.648C93.0554 42.9787 92.394 43.144 91.6367 43.144C90.858 43.144 90.154 42.952 89.5247 42.568C88.8954 42.184 88.3994 41.6453 88.0367 40.952C87.674 40.2587 87.4927 39.4693 87.4927 38.584ZM94.9167 38.6C94.9167 37.9387 94.7834 37.3627 94.5167 36.872C94.25 36.3813 93.8874 36.008 93.4287 35.752C92.9807 35.4853 92.4847 35.352 91.9407 35.352C91.3967 35.352 90.9007 35.48 90.4527 35.736C90.0047 35.992 89.6474 36.3653 89.3807 36.856C89.114 37.3467 88.9807 37.9227 88.9807 38.584C88.9807 39.256 89.114 39.8427 89.3807 40.344C89.6474 40.8347 90.0047 41.2133 90.4527 41.48C90.9007 41.736 91.3967 41.864 91.9407 41.864C92.4847 41.864 92.9807 41.736 93.4287 41.48C93.8874 41.2133 94.25 40.8347 94.5167 40.344C94.7834 39.8427 94.9167 39.2613 94.9167 38.6ZM102.113 41.656L104.833 34.232H106.385L102.945 43H101.249L97.8092 34.232H99.3772L102.113 41.656ZM115.818 38.28C115.818 38.5573 115.802 38.8507 115.77 39.16H108.762C108.815 40.024 109.109 40.7013 109.642 41.192C110.186 41.672 110.842 41.912 111.61 41.912C112.239 41.912 112.762 41.768 113.178 41.48C113.605 41.1813 113.903 40.7867 114.074 40.296H115.642C115.407 41.1387 114.938 41.8267 114.234 42.36C113.53 42.8827 112.655 43.144 111.61 43.144C110.778 43.144 110.031 42.9573 109.37 42.584C108.719 42.2107 108.207 41.6827 107.834 41C107.461 40.3067 107.274 39.5067 107.274 38.6C107.274 37.6933 107.455 36.8987 107.818 36.216C108.181 35.5333 108.687 35.0107 109.338 34.648C109.999 34.2747 110.757 34.088 111.61 34.088C112.442 34.088 113.178 34.2693 113.818 34.632C114.458 34.9947 114.949 35.496 115.29 36.136C115.642 36.7653 115.818 37.48 115.818 38.28ZM114.314 37.976C114.314 37.4213 114.191 36.9467 113.946 36.552C113.701 36.1467 113.365 35.8427 112.938 35.64C112.522 35.4267 112.058 35.32 111.546 35.32C110.81 35.32 110.181 35.5547 109.658 36.024C109.146 36.4933 108.853 37.144 108.778 37.976H114.314ZM129.781 34.232V43H128.325V41.704C128.048 42.152 127.659 42.504 127.157 42.76C126.667 43.0053 126.123 43.128 125.525 43.128C124.843 43.128 124.229 42.9893 123.685 42.712C123.141 42.424 122.709 41.9973 122.389 41.432C122.08 40.8667 121.925 40.1787 121.925 39.368V34.232H123.365V39.176C123.365 40.04 123.584 40.7067 124.021 41.176C124.459 41.6347 125.056 41.864 125.813 41.864C126.592 41.864 127.205 41.624 127.653 41.144C128.101 40.664 128.325 39.9653 128.325 39.048V34.232H129.781ZM133.696 35.848C133.984 35.3467 134.41 34.9307 134.976 34.6C135.552 34.2587 136.218 34.088 136.976 34.088C137.754 34.088 138.458 34.2747 139.088 34.648C139.728 35.0213 140.229 35.5493 140.592 36.232C140.954 36.904 141.136 37.688 141.136 38.584C141.136 39.4693 140.954 40.2587 140.592 40.952C140.229 41.6453 139.728 42.184 139.088 42.568C138.458 42.952 137.754 43.144 136.976 43.144C136.229 43.144 135.568 42.9787 134.992 42.648C134.426 42.3067 133.994 41.8853 133.696 41.384V47.16H132.24V34.232H133.696V35.848ZM139.648 38.584C139.648 37.9227 139.514 37.3467 139.248 36.856C138.981 36.3653 138.618 35.992 138.16 35.736C137.712 35.48 137.216 35.352 136.672 35.352C136.138 35.352 135.642 35.4853 135.184 35.752C134.736 36.008 134.373 36.3867 134.096 36.888C133.829 37.3787 133.696 37.9493 133.696 38.6C133.696 39.2613 133.829 39.8427 134.096 40.344C134.373 40.8347 134.736 41.2133 135.184 41.48C135.642 41.736 136.138 41.864 136.672 41.864C137.216 41.864 137.712 41.736 138.16 41.48C138.618 41.2133 138.981 40.8347 139.248 40.344C139.514 39.8427 139.648 39.256 139.648 38.584ZM144.828 35.432V40.6C144.828 41.0267 144.919 41.3307 145.1 41.512C145.282 41.6827 145.596 41.768 146.044 41.768H147.116V43H145.804C144.994 43 144.386 42.8133 143.98 42.44C143.575 42.0667 143.372 41.4533 143.372 40.6V35.432H142.236V34.232H143.372V32.024H144.828V34.232H147.116V35.432H144.828ZM152.704 43.144C151.883 43.144 151.136 42.9573 150.464 42.584C149.803 42.2107 149.28 41.6827 148.896 41C148.523 40.3067 148.336 39.5067 148.336 38.6C148.336 37.704 148.528 36.9147 148.912 36.232C149.307 35.5387 149.84 35.0107 150.512 34.648C151.184 34.2747 151.936 34.088 152.768 34.088C153.6 34.088 154.352 34.2747 155.024 34.648C155.696 35.0107 156.224 35.5333 156.608 36.216C157.003 36.8987 157.2 37.6933 157.2 38.6C157.2 39.5067 156.998 40.3067 156.592 41C156.198 41.6827 155.659 42.2107 154.976 42.584C154.294 42.9573 153.536 43.144 152.704 43.144ZM152.704 41.864C153.227 41.864 153.718 41.7413 154.176 41.496C154.635 41.2507 155.003 40.8827 155.28 40.392C155.568 39.9013 155.712 39.304 155.712 38.6C155.712 37.896 155.574 37.2987 155.296 36.808C155.019 36.3173 154.656 35.9547 154.208 35.72C153.76 35.4747 153.275 35.352 152.752 35.352C152.219 35.352 151.728 35.4747 151.28 35.72C150.843 35.9547 150.491 36.3173 150.224 36.808C149.958 37.2987 149.824 37.896 149.824 38.6C149.824 39.3147 149.952 39.9173 150.208 40.408C150.475 40.8987 150.827 41.2667 151.264 41.512C151.702 41.7467 152.182 41.864 152.704 41.864ZM162.964 41.832C164.319 40.744 165.38 39.8533 166.148 39.16C166.916 38.456 167.562 37.7253 168.084 36.968C168.618 36.2 168.884 35.448 168.884 34.712C168.884 34.0187 168.714 33.4747 168.372 33.08C168.042 32.6747 167.503 32.472 166.756 32.472C166.031 32.472 165.466 32.7013 165.06 33.16C164.666 33.608 164.452 34.2107 164.42 34.968H163.012C163.055 33.7733 163.418 32.8507 164.1 32.2C164.783 31.5493 165.663 31.224 166.74 31.224C167.839 31.224 168.708 31.528 169.348 32.136C169.999 32.744 170.324 33.5813 170.324 34.648C170.324 35.5333 170.058 36.3973 169.524 37.24C169.002 38.072 168.404 38.808 167.732 39.448C167.06 40.0773 166.202 40.8133 165.156 41.656H170.66V42.872H162.964V41.832ZM174.456 36.984C173.858 36.7493 173.4 36.408 173.08 35.96C172.76 35.512 172.6 34.968 172.6 34.328C172.6 33.752 172.744 33.2347 173.032 32.776C173.32 32.3067 173.746 31.9387 174.312 31.672C174.888 31.3947 175.581 31.256 176.392 31.256C177.202 31.256 177.89 31.3947 178.456 31.672C179.032 31.9387 179.464 32.3067 179.752 32.776C180.05 33.2347 180.2 33.752 180.2 34.328C180.2 34.9467 180.034 35.4907 179.704 35.96C179.373 36.4187 178.92 36.76 178.344 36.984C179.005 37.1867 179.528 37.544 179.912 38.056C180.306 38.5573 180.504 39.1653 180.504 39.88C180.504 40.5733 180.333 41.1813 179.992 41.704C179.65 42.216 179.165 42.616 178.536 42.904C177.917 43.1813 177.202 43.32 176.392 43.32C175.581 43.32 174.866 43.1813 174.248 42.904C173.64 42.616 173.165 42.216 172.824 41.704C172.482 41.1813 172.312 40.5733 172.312 39.88C172.312 39.1653 172.504 38.552 172.888 38.04C173.272 37.528 173.794 37.176 174.456 36.984ZM178.792 34.504C178.792 33.8533 178.578 33.352 178.152 33C177.725 32.648 177.138 32.472 176.392 32.472C175.656 32.472 175.074 32.648 174.648 33C174.221 33.352 174.008 33.8587 174.008 34.52C174.008 35.1173 174.226 35.5973 174.664 35.96C175.112 36.3227 175.688 36.504 176.392 36.504C177.106 36.504 177.682 36.3227 178.12 35.96C178.568 35.5867 178.792 35.1013 178.792 34.504ZM176.392 37.624C175.602 37.624 174.957 37.8107 174.456 38.184C173.954 38.5467 173.704 39.096 173.704 39.832C173.704 40.5147 173.944 41.064 174.424 41.48C174.914 41.896 175.57 42.104 176.392 42.104C177.213 42.104 177.864 41.896 178.344 41.48C178.824 41.064 179.064 40.5147 179.064 39.832C179.064 39.1173 178.818 38.5733 178.328 38.2C177.837 37.816 177.192 37.624 176.392 37.624ZM182.117 34.04C182.117 33.3147 182.336 32.7387 182.773 32.312C183.211 31.8747 183.771 31.656 184.453 31.656C185.136 31.656 185.696 31.8747 186.133 32.312C186.571 32.7387 186.789 33.3147 186.789 34.04C186.789 34.776 186.571 35.3627 186.133 35.8C185.696 36.2267 185.136 36.44 184.453 36.44C183.771 36.44 183.211 36.2267 182.773 35.8C182.336 35.3627 182.117 34.776 182.117 34.04ZM191.461 31.832L184.981 43H183.541L190.021 31.832H191.461ZM184.453 32.552C184.091 32.552 183.803 32.68 183.589 32.936C183.387 33.1813 183.285 33.5493 183.285 34.04C183.285 34.5307 183.387 34.904 183.589 35.16C183.803 35.416 184.091 35.544 184.453 35.544C184.816 35.544 185.104 35.416 185.317 35.16C185.531 34.8933 185.637 34.52 185.637 34.04C185.637 33.5493 185.531 33.1813 185.317 32.936C185.104 32.68 184.816 32.552 184.453 32.552ZM188.245 40.792C188.245 40.056 188.464 39.4747 188.901 39.048C189.339 38.6107 189.899 38.392 190.581 38.392C191.264 38.392 191.819 38.6107 192.245 39.048C192.683 39.4747 192.901 40.056 192.901 40.792C192.901 41.5173 192.683 42.0987 192.245 42.536C191.819 42.9733 191.264 43.192 190.581 43.192C189.899 43.192 189.339 42.9787 188.901 42.552C188.464 42.1147 188.245 41.528 188.245 40.792ZM190.565 39.304C190.203 39.304 189.915 39.432 189.701 39.688C189.488 39.9333 189.381 40.3013 189.381 40.792C189.381 41.272 189.488 41.64 189.701 41.896C189.915 42.1413 190.203 42.264 190.565 42.264C190.928 42.264 191.216 42.1413 191.429 41.896C191.643 41.64 191.749 41.272 191.749 40.792C191.749 40.3013 191.643 39.9333 191.429 39.688C191.216 39.432 190.928 39.304 190.565 39.304Z" fill="#2C42B5"/>
<mask id="mask0_13668_9069" style="mask-type:alpha" maskUnits="userSpaceOnUse" x="0" y="0" width="49" height="49">
<rect x="48.1724" y="26.3184" width="34" height="34" transform="rotate(140 48.1724 26.3184)" fill="#D9D9D9"/>
</mask>
<g mask="url(#mask0_13668_9069)">
<path d="M21.4905 20.9678L31.4697 21.8408L20.6174 30.947L21.4905 20.9678Z" fill="#1C1B1F"/>
</g>
</svg>
