<svg width="69" height="69" viewBox="0 0 69 69" fill="none" xmlns="http://www.w3.org/2000/svg">
<rect width="69" height="69" rx="8" fill="#F9F9FB"/>
<path d="M29.6758 17.0492C27.707 17.2813 26.0969 17.682 24.4586 18.357C22.6094 19.1164 20.9078 20.1781 19.3609 21.5281L18.8125 21.9992V20.9094V19.8125H17.4062H16V25.2406V30.6758L17.5328 28.3836C18.3695 27.125 19.1992 25.9227 19.375 25.7117C21.3648 23.293 23.6922 21.6477 26.4555 20.6984C28.0938 20.143 29.4016 19.918 31.525 19.8406L32.875 19.7914V18.3992V17L31.3844 17.007C30.5617 17.0141 29.7953 17.0352 29.6758 17.0492Z" fill="url(#paint0_linear_9220_4974)"/>
<path d="M40.75 18.4555V19.918L40.2367 20.0445C39.9625 20.1078 39.4 20.3258 38.9992 20.5297L38.275 20.8883L37.2414 19.8547L36.2148 18.8281L35.1742 19.8687L34.1406 20.9023L35.1742 21.9359L36.2078 22.9695L35.9195 23.518C35.6312 24.0734 35.2656 25.0648 35.2656 25.3039C35.2656 25.4305 35.1883 25.4375 33.7891 25.4375H32.3125V26.8438V28.25H33.7891C35.1883 28.25 35.2656 28.257 35.2656 28.3836C35.2656 28.6227 35.6312 29.6141 35.9195 30.1695L36.2078 30.718L35.1742 31.7516L34.1406 32.7852L35.1812 33.8258L36.2148 34.8594L37.2484 33.8258L38.282 32.7922L38.8305 33.0805C39.4 33.3758 40.0328 33.6148 40.4898 33.6992L40.75 33.7484V35.218V36.6875H42.1562H43.5625V35.2109C43.5625 33.8117 43.5695 33.7344 43.6961 33.7344C43.9352 33.7344 44.9266 33.3688 45.482 33.0805L46.0305 32.7922L47.0641 33.8258L48.0977 34.8594L49.1313 33.8258L50.1719 32.7852L49.1453 31.7586L48.1117 30.725L48.4703 30.0008C48.6742 29.6 48.8922 29.0375 48.9555 28.7633L49.082 28.25H50.5445H52V26.8438V25.4375H50.5445H49.082L48.9555 24.9242C48.8922 24.65 48.6742 24.0875 48.4703 23.6867L48.1117 22.9625L49.1453 21.9359L50.1719 20.9023L49.1383 19.8687L48.0977 18.8281L47.0711 19.8547L46.0375 20.8883L45.3133 20.5297C44.9125 20.3258 44.35 20.1078 44.0758 20.0445L43.5625 19.918V18.4555V17H42.1562H40.75V18.4555ZM43.3867 22.8711C44.7227 23.2789 45.8336 24.4461 46.1992 25.8242C46.3328 26.3586 46.3328 27.3289 46.1992 27.8633C45.9391 28.8477 45.257 29.7828 44.3852 30.3594C43.3727 31.0203 42.0156 31.1961 40.8766 30.8023C40.1383 30.5492 39.6039 30.1906 39.0766 29.6141C38.3453 28.8195 38.0078 27.9336 38.0078 26.8016C38.0078 24.425 40.075 22.5125 42.4727 22.6813C42.6695 22.6953 43.0773 22.7797 43.3867 22.8711Z" fill="url(#paint1_linear_9220_4974)"/>
<path d="M41.4039 25.6203C40.968 25.8805 40.75 26.2883 40.75 26.8438C40.75 27.7086 41.2914 28.25 42.1562 28.25C43.0211 28.25 43.5625 27.7086 43.5625 26.8438C43.5625 25.9789 43.0211 25.4375 42.1492 25.4375C41.7906 25.4375 41.6359 25.4727 41.4039 25.6203Z" fill="url(#paint2_linear_9220_4974)"/>
<path d="M24.4375 34.768V36.2305L23.9242 36.357C23.65 36.4203 23.0875 36.6383 22.6867 36.8422L21.9625 37.2008L20.9289 36.1672L19.9023 35.1406L18.8617 36.1812L17.8281 37.2148L18.8617 38.2484L19.8953 39.282L19.607 39.8305C19.3187 40.3859 18.9531 41.3773 18.9531 41.6164C18.9531 41.743 18.8758 41.75 17.4766 41.75H16V43.1562V44.5625H17.4766C18.8758 44.5625 18.9531 44.5695 18.9531 44.6961C18.9531 44.9352 19.3187 45.9266 19.607 46.482L19.8953 47.0305L18.8617 48.0641L17.8281 49.0977L18.8687 50.1383L19.9023 51.1719L20.9359 50.1383L21.9695 49.1047L22.518 49.393C23.0875 49.6883 23.7203 49.9273 24.1773 50.0117L24.4375 50.0609V51.5305V53H25.8438H27.25V51.5234C27.25 50.1242 27.257 50.0469 27.3836 50.0469C27.6227 50.0469 28.6141 49.6813 29.1695 49.393L29.718 49.1047L30.7516 50.1383L31.7852 51.1719L32.8188 50.1383L33.8594 49.0977L32.8328 48.0711L31.7992 47.0375L32.1578 46.3133C32.3617 45.9125 32.5797 45.35 32.643 45.0758L32.7695 44.5625H34.232H35.6875V43.1562V41.75H34.232H32.7695L32.643 41.2367C32.5797 40.9625 32.3617 40.4 32.1578 39.9992L31.7992 39.275L32.8328 38.2484L33.8594 37.2148L32.8258 36.1812L31.7852 35.1406L30.7586 36.1672L29.725 37.2008L29.0008 36.8422C28.6 36.6383 28.0375 36.4203 27.7633 36.357L27.25 36.2305V34.768V33.3125H25.8438H24.4375V34.768ZM27.0742 39.1836C28.4102 39.5914 29.5211 40.7586 29.8867 42.1367C30.0203 42.6711 30.0203 43.6414 29.8867 44.1758C29.6266 45.1602 28.9445 46.0953 28.0727 46.6719C27.0602 47.3328 25.7031 47.5086 24.5641 47.1148C23.8258 46.8617 23.2914 46.5031 22.7641 45.9266C22.0328 45.132 21.6953 44.2461 21.6953 43.1141C21.6953 40.7375 23.7625 38.825 26.1602 38.9938C26.357 39.0078 26.7648 39.0922 27.0742 39.1836Z" fill="url(#paint3_linear_9220_4974)"/>
<path d="M25.0914 41.9328C24.6555 42.193 24.4375 42.6008 24.4375 43.1562C24.4375 43.5078 24.4727 43.6695 24.6133 43.9016C24.8734 44.3445 25.2812 44.5625 25.8438 44.5625C26.7086 44.5625 27.25 44.0211 27.25 43.1562C27.25 42.2914 26.7086 41.75 25.8367 41.75C25.4781 41.75 25.3234 41.7852 25.0914 41.9328Z" fill="url(#paint4_linear_9220_4974)"/>
<path d="M50.6289 41.3773C49.8977 42.4812 49.1312 43.6133 48.9344 43.8805C46.9937 46.4891 44.2727 48.4367 41.2141 49.407C39.6813 49.8992 38.493 50.082 36.482 50.1594L35.125 50.2086V51.6008V53H36.5172C38.5 53 39.8922 52.8102 41.7273 52.2828C42.5289 52.0508 44.0406 51.4672 44.7437 51.1086C46.0445 50.4547 47.5141 49.4563 48.6461 48.4719L49.1875 48.0008V49.0906V50.1875H50.5938H52V44.7734C52 41.7922 51.993 39.3594 51.9859 39.3594C51.9719 39.3594 51.3672 40.2664 50.6289 41.3773Z" fill="url(#paint5_linear_9220_4974)"/>
<defs>
<linearGradient id="paint0_linear_9220_4974" x1="24.4375" y1="17" x2="24.4375" y2="30.6758" gradientUnits="userSpaceOnUse">
<stop stop-color="#00BDA4"/>
<stop offset="1" stop-color="#00A4BC"/>
</linearGradient>
<linearGradient id="paint1_linear_9220_4974" x1="42.1562" y1="17" x2="42.1562" y2="36.6875" gradientUnits="userSpaceOnUse">
<stop stop-color="#00BDA4"/>
<stop offset="1" stop-color="#00A4BC"/>
</linearGradient>
<linearGradient id="paint2_linear_9220_4974" x1="42.1562" y1="25.4375" x2="42.1562" y2="28.25" gradientUnits="userSpaceOnUse">
<stop stop-color="#00BDA4"/>
<stop offset="1" stop-color="#00A4BC"/>
</linearGradient>
<linearGradient id="paint3_linear_9220_4974" x1="25.8438" y1="33.3125" x2="25.8438" y2="53" gradientUnits="userSpaceOnUse">
<stop stop-color="#00BDA4"/>
<stop offset="1" stop-color="#00A4BC"/>
</linearGradient>
<linearGradient id="paint4_linear_9220_4974" x1="25.8438" y1="41.75" x2="25.8438" y2="44.5625" gradientUnits="userSpaceOnUse">
<stop stop-color="#00BDA4"/>
<stop offset="1" stop-color="#00A4BC"/>
</linearGradient>
<linearGradient id="paint5_linear_9220_4974" x1="43.5625" y1="39.3594" x2="43.5625" y2="53" gradientUnits="userSpaceOnUse">
<stop stop-color="#00BDA4"/>
<stop offset="1" stop-color="#00A4BC"/>
</linearGradient>
</defs>
</svg>
