<svg width="118" height="18" viewBox="0 0 118 18" fill="none" xmlns="http://www.w3.org/2000/svg">
<g clip-path="url(#clip0_9368_10189)">
<path d="M8.18993 2.15102C8.27246 2.00939 8.39069 1.89188 8.53282 1.8102C8.67494 1.72853 8.836 1.68555 8.99993 1.68555C9.16385 1.68555 9.32491 1.72853 9.46704 1.8102C9.60917 1.89188 9.72739 2.00939 9.80993 2.15102L11.9062 5.74952L15.9772 6.63152C16.1373 6.66632 16.2855 6.74248 16.4071 6.85242C16.5286 6.96236 16.6192 7.10223 16.6698 7.25809C16.7204 7.41395 16.7293 7.58035 16.6955 7.74071C16.6618 7.90107 16.5866 8.04978 16.4774 8.17202L13.7024 11.2778L14.1224 15.4215C14.139 15.5847 14.1125 15.7493 14.0455 15.8991C13.9785 16.0488 13.8735 16.1783 13.7408 16.2747C13.6081 16.3711 13.4524 16.431 13.2894 16.4484C13.1263 16.4659 12.9615 16.4402 12.8114 16.374L8.99993 14.694L5.18843 16.374C5.03837 16.4402 4.87357 16.4659 4.71049 16.4484C4.54742 16.431 4.39177 16.3711 4.25908 16.2747C4.1264 16.1783 4.02133 16.0488 3.95435 15.8991C3.88738 15.7493 3.86086 15.5847 3.87743 15.4215L4.29743 11.2778L1.52243 8.17277C1.4131 8.05054 1.33774 7.90177 1.30389 7.74131C1.27003 7.58085 1.27886 7.41432 1.32949 7.25834C1.38011 7.10236 1.47077 6.96239 1.59241 6.8524C1.71404 6.74241 1.8624 6.66625 2.02268 6.63152L6.09368 5.74952L8.18993 2.15102Z" fill="#FFCD3A"/>
</g>
<g clip-path="url(#clip1_9368_10189)">
<path d="M33.1899 2.15102C33.2725 2.00939 33.3907 1.89188 33.5328 1.8102C33.6749 1.72853 33.836 1.68555 33.9999 1.68555C34.1639 1.68555 34.3249 1.72853 34.467 1.8102C34.6092 1.89188 34.7274 2.00939 34.8099 2.15102L36.9062 5.74952L40.9772 6.63152C41.1373 6.66632 41.2855 6.74248 41.4071 6.85242C41.5286 6.96236 41.6192 7.10223 41.6698 7.25809C41.7204 7.41395 41.7293 7.58035 41.6955 7.74071C41.6618 7.90107 41.5866 8.04978 41.4774 8.17202L38.7024 11.2778L39.1224 15.4215C39.139 15.5847 39.1125 15.7493 39.0455 15.8991C38.9785 16.0488 38.8735 16.1783 38.7408 16.2747C38.6081 16.3711 38.4524 16.431 38.2894 16.4484C38.1263 16.4659 37.9615 16.4402 37.8114 16.374L33.9999 14.694L30.1884 16.374C30.0384 16.4402 29.8736 16.4659 29.7105 16.4484C29.5474 16.431 29.3918 16.3711 29.2591 16.2747C29.1264 16.1783 29.0213 16.0488 28.9544 15.8991C28.8874 15.7493 28.8609 15.5847 28.8774 15.4215L29.2974 11.2778L26.5224 8.17277C26.4131 8.05054 26.3377 7.90177 26.3039 7.74131C26.27 7.58085 26.2789 7.41432 26.3295 7.25834C26.3801 7.10236 26.4708 6.96239 26.5924 6.8524C26.714 6.74241 26.8624 6.66625 27.0227 6.63152L31.0937 5.74952L33.1899 2.15102Z" fill="#FFCD3A"/>
</g>
<g clip-path="url(#clip2_9368_10189)">
<path d="M58.1899 2.15102C58.2725 2.00939 58.3907 1.89188 58.5328 1.8102C58.6749 1.72853 58.836 1.68555 58.9999 1.68555C59.1639 1.68555 59.3249 1.72853 59.467 1.8102C59.6092 1.89188 59.7274 2.00939 59.8099 2.15102L61.9062 5.74952L65.9772 6.63152C66.1373 6.66632 66.2855 6.74248 66.4071 6.85242C66.5286 6.96236 66.6192 7.10223 66.6698 7.25809C66.7204 7.41395 66.7293 7.58035 66.6955 7.74071C66.6618 7.90107 66.5866 8.04978 66.4774 8.17202L63.7024 11.2778L64.1224 15.4215C64.139 15.5847 64.1125 15.7493 64.0455 15.8991C63.9785 16.0488 63.8735 16.1783 63.7408 16.2747C63.6081 16.3711 63.4524 16.431 63.2894 16.4484C63.1263 16.4659 62.9615 16.4402 62.8114 16.374L58.9999 14.694L55.1884 16.374C55.0384 16.4402 54.8736 16.4659 54.7105 16.4484C54.5474 16.431 54.3918 16.3711 54.2591 16.2747C54.1264 16.1783 54.0213 16.0488 53.9544 15.8991C53.8874 15.7493 53.8609 15.5847 53.8774 15.4215L54.2974 11.2778L51.5224 8.17277C51.4131 8.05054 51.3377 7.90177 51.3039 7.74131C51.27 7.58085 51.2789 7.41432 51.3295 7.25834C51.3801 7.10236 51.4708 6.96239 51.5924 6.8524C51.714 6.74241 51.8624 6.66625 52.0227 6.63152L56.0937 5.74952L58.1899 2.15102Z" fill="#FFCD3A"/>
</g>
<g clip-path="url(#clip3_9368_10189)">
<path d="M83.1899 2.15102C83.2725 2.00939 83.3907 1.89188 83.5328 1.8102C83.6749 1.72853 83.836 1.68555 83.9999 1.68555C84.1639 1.68555 84.3249 1.72853 84.467 1.8102C84.6092 1.89188 84.7274 2.00939 84.8099 2.15102L86.9062 5.74952L90.9772 6.63152C91.1373 6.66632 91.2855 6.74248 91.4071 6.85242C91.5286 6.96236 91.6192 7.10223 91.6698 7.25809C91.7204 7.41395 91.7293 7.58035 91.6955 7.74071C91.6618 7.90107 91.5866 8.04978 91.4774 8.17202L88.7024 11.2778L89.1224 15.4215C89.139 15.5847 89.1125 15.7493 89.0455 15.8991C88.9785 16.0488 88.8735 16.1783 88.7408 16.2747C88.6081 16.3711 88.4524 16.431 88.2894 16.4484C88.1263 16.4659 87.9615 16.4402 87.8114 16.374L83.9999 14.694L80.1884 16.374C80.0384 16.4402 79.8736 16.4659 79.7105 16.4484C79.5474 16.431 79.3918 16.3711 79.2591 16.2747C79.1264 16.1783 79.0213 16.0488 78.9544 15.8991C78.8874 15.7493 78.8609 15.5847 78.8774 15.4215L79.2974 11.2778L76.5224 8.17277C76.4131 8.05054 76.3377 7.90177 76.3039 7.74131C76.27 7.58085 76.2789 7.41432 76.3295 7.25834C76.3801 7.10236 76.4708 6.96239 76.5924 6.8524C76.714 6.74241 76.8624 6.66625 77.0227 6.63152L81.0937 5.74952L83.1899 2.15102Z" fill="#FFCD3A"/>
</g>
<g clip-path="url(#clip4_9368_10189)">
<path d="M108.19 2.15102C108.272 2.00939 108.391 1.89188 108.533 1.8102C108.675 1.72853 108.836 1.68555 109 1.68555C109.164 1.68555 109.325 1.72853 109.467 1.8102C109.609 1.89188 109.727 2.00939 109.81 2.15102L111.906 5.74952L115.977 6.63152C116.137 6.66632 116.286 6.74248 116.407 6.85242C116.529 6.96236 116.619 7.10223 116.67 7.25809C116.72 7.41395 116.729 7.58035 116.696 7.74071C116.662 7.90107 116.587 8.04978 116.477 8.17202L113.702 11.2778L114.122 15.4215C114.139 15.5847 114.112 15.7493 114.046 15.8991C113.979 16.0488 113.873 16.1783 113.741 16.2747C113.608 16.3711 113.452 16.431 113.289 16.4484C113.126 16.4659 112.961 16.4402 112.811 16.374L109 14.694L105.188 16.374C105.038 16.4402 104.874 16.4659 104.71 16.4484C104.547 16.431 104.392 16.3711 104.259 16.2747C104.126 16.1783 104.021 16.0488 103.954 15.8991C103.887 15.7493 103.861 15.5847 103.877 15.4215L104.297 11.2778L101.522 8.17277C101.413 8.05054 101.338 7.90177 101.304 7.74131C101.27 7.58085 101.279 7.41432 101.329 7.25834C101.38 7.10236 101.471 6.96239 101.592 6.8524C101.714 6.74241 101.862 6.66625 102.023 6.63152L106.094 5.74952L108.19 2.15102Z" fill="url(#paint0_linear_9368_10189)"/>
</g>
<defs>
<linearGradient id="paint0_linear_9368_10189" x1="101.5" y1="8" x2="116.5" y2="8" gradientUnits="userSpaceOnUse">
<stop stop-color="#FFCD3A"/>
<stop offset="0.536335" stop-color="white"/>
<stop offset="1" stop-color="white"/>
</linearGradient>
<clipPath id="clip0_9368_10189">
<rect width="18" height="18" fill="white"/>
</clipPath>
<clipPath id="clip1_9368_10189">
<rect width="18" height="18" fill="white" transform="translate(25)"/>
</clipPath>
<clipPath id="clip2_9368_10189">
<rect width="18" height="18" fill="white" transform="translate(50)"/>
</clipPath>
<clipPath id="clip3_9368_10189">
<rect width="18" height="18" fill="white" transform="translate(75)"/>
</clipPath>
<clipPath id="clip4_9368_10189">
<rect width="18" height="18" fill="white" transform="translate(100)"/>
</clipPath>
</defs>
</svg>
