<svg width="50" height="50" viewBox="0 0 50 50" fill="none" xmlns="http://www.w3.org/2000/svg">
<mask id="mask0_2015_1697" style="mask-type:alpha" maskUnits="userSpaceOnUse" x="0" y="0" width="50" height="50">
<rect width="50" height="50" fill="#D9D9D9"/>
</mask>
<g mask="url(#mask0_2015_1697)">
<path d="M37.5003 27.082V22.9154H45.8337V27.082H37.5003ZM40.0003 41.6654L33.3337 36.6654L35.8337 33.332L42.5003 38.332L40.0003 41.6654ZM35.8337 16.6654L33.3337 13.332L40.0003 8.33203L42.5003 11.6654L35.8337 16.6654ZM10.417 39.582V31.2487H8.33366C7.18783 31.2487 6.20727 30.8404 5.39199 30.0237C4.57533 29.2084 4.16699 28.2279 4.16699 27.082V22.9154C4.16699 21.7695 4.57533 20.7883 5.39199 19.9716C6.20727 19.1563 7.18783 18.7487 8.33366 18.7487H16.667L27.0837 12.4987V37.4987L16.667 31.2487H14.5837V39.582H10.417ZM29.167 31.9779V18.0195C30.1045 18.8529 30.8601 19.8688 31.4337 21.0674C32.0059 22.2647 32.292 23.5751 32.292 24.9987C32.292 26.4223 32.0059 27.7327 31.4337 28.9299C30.8601 30.1286 30.1045 31.1445 29.167 31.9779Z" fill="#F1E0AC"/>
</g>
<mask id="mask1_2015_1697" style="mask-type:alpha" maskUnits="userSpaceOnUse" x="0" y="0" width="50" height="50">
<rect width="50" height="50" fill="#D9D9D9"/>
</mask>
<g mask="url(#mask1_2015_1697)">
<path d="M37.4997 27.082V22.9154H45.833V27.082H37.4997ZM39.9997 41.6654L33.333 36.6654L35.833 33.332L42.4997 38.332L39.9997 41.6654ZM35.833 16.6654L33.333 13.332L39.9997 8.33203L42.4997 11.6654L35.833 16.6654Z" fill="#EC627B"/>
</g>
</svg>
