<svg width="50" height="50" viewBox="0 0 50 50" fill="none" xmlns="http://www.w3.org/2000/svg">
<mask id="mask0_2015_1709" style="mask-type:alpha" maskUnits="userSpaceOnUse" x="0" y="0" width="50" height="50">
<rect width="50" height="50" fill="#D9D9D9"/>
</mask>
<g mask="url(#mask0_2015_1709)">
<path d="M20.8337 29.168H29.167V25.0013H20.8337V29.168ZM20.8337 22.918H37.5003V18.7513H20.8337V22.918ZM20.8337 16.668H37.5003V12.5013H20.8337V16.668ZM16.667 37.5013C15.5212 37.5013 14.5406 37.0937 13.7253 36.2784C12.9087 35.4617 12.5003 34.4805 12.5003 33.3346V8.33464C12.5003 7.1888 12.9087 6.20755 13.7253 5.39089C14.5406 4.57561 15.5212 4.16797 16.667 4.16797H41.667C42.8128 4.16797 43.7941 4.57561 44.6107 5.39089C45.426 6.20755 45.8337 7.1888 45.8337 8.33464V33.3346C45.8337 34.4805 45.426 35.4617 44.6107 36.2784C43.7941 37.0937 42.8128 37.5013 41.667 37.5013H16.667ZM8.33366 45.8346C7.18783 45.8346 6.20727 45.427 5.39199 44.6117C4.57533 43.7951 4.16699 42.8138 4.16699 41.668V12.5013H8.33366V41.668H37.5003V45.8346H8.33366Z" fill="#BEEDFB"/>
</g>
<mask id="mask1_2015_1709" style="mask-type:alpha" maskUnits="userSpaceOnUse" x="0" y="0" width="50" height="50">
<rect width="50" height="50" fill="#D9D9D9"/>
</mask>
<g mask="url(#mask1_2015_1709)">
<path d="M8.33366 45.8333C7.18782 45.8333 6.20727 45.4257 5.39199 44.6104C4.57533 43.7937 4.16699 42.8125 4.16699 41.6667V12.5H8.33366V41.6667H37.5003V45.8333H8.33366Z" fill="#03A8DA"/>
</g>
</svg>
