<svg width="74" height="74" viewBox="0 0 74 74" fill="none" xmlns="http://www.w3.org/2000/svg">
<mask id="mask0_8879_4995" style="mask-type:alpha" maskUnits="userSpaceOnUse" x="0" y="0" width="74" height="74">
<rect width="74" height="74" fill="#D9D9D9"/>
</mask>
<g mask="url(#mask0_8879_4995)">
<path d="M33.9165 55.5013H40.0831V46.2513H49.3331V40.0846H40.0831V30.8346H33.9165V40.0846H24.6665V46.2513H33.9165V55.5013ZM18.4998 67.8346C16.804 67.8346 15.3522 67.2308 14.1446 66.0232C12.9369 64.8155 12.3331 63.3638 12.3331 61.668V12.3346C12.3331 10.6388 12.9369 9.18707 14.1446 7.97943C15.3522 6.77179 16.804 6.16797 18.4998 6.16797H43.1665L61.6665 24.668V61.668C61.6665 63.3638 61.0626 64.8155 59.855 66.0232C58.6474 67.2308 57.1956 67.8346 55.4998 67.8346H18.4998ZM40.0831 27.7513V12.3346H18.4998V61.668H55.4998V27.7513H40.0831Z" fill="#47486C"/>
</g>
<mask id="mask1_8879_4995" style="mask-type:alpha" maskUnits="userSpaceOnUse" x="0" y="0" width="74" height="74">
<rect width="74" height="74" fill="#D9D9D9"/>
</mask>
<g mask="url(#mask1_8879_4995)">
<path d="M33.9165 55.5013H40.0831V46.2513H49.3331V40.0846H40.0831V30.8346H33.9165V40.0846H24.6665V46.2513H33.9165V55.5013Z" fill="#2C42B5"/>
</g>
</svg>
