<svg width="80" height="80" viewBox="0 0 80 80" fill="none" xmlns="http://www.w3.org/2000/svg">
<mask id="mask0_11420_4359" style="mask-type:alpha" maskUnits="userSpaceOnUse" x="0" y="0" width="80" height="80">
<rect width="80" height="80" fill="#D9D9D9"/>
</mask>
<g mask="url(#mask0_11420_4359)">
<path d="M13.3333 30C12.3889 30 11.5972 29.6805 10.9583 29.0416C10.3194 28.4027 10 27.6111 10 26.6666C10 25.7222 10.3194 24.9305 10.9583 24.2916C11.5972 23.6527 12.3889 23.3333 13.3333 23.3333H23.3333C25.1667 23.3333 26.7361 23.9861 28.0417 25.2916C29.3472 26.5972 30 28.1666 30 30H13.3333ZM20 60C22.7778 60 25.1389 59.0277 27.0833 57.0833C29.0278 55.1388 30 52.7777 30 50C30 47.2222 29.0278 44.8611 27.0833 42.9166C25.1389 40.9722 22.7778 40 20 40C17.2222 40 14.8611 40.9722 12.9167 42.9166C10.9722 44.8611 10 47.2222 10 50C10 52.7777 10.9722 55.1388 12.9167 57.0833C14.8611 59.0277 17.2222 60 20 60ZM65 60C66.3889 60 67.5694 59.5138 68.5417 58.5416C69.5139 57.5694 70 56.3888 70 55C70 53.6111 69.5139 52.4305 68.5417 51.4583C67.5694 50.4861 66.3889 50 65 50C63.6111 50 62.4306 50.4861 61.4583 51.4583C60.4861 52.4305 60 53.6111 60 55C60 56.3888 60.4861 57.5694 61.4583 58.5416C62.4306 59.5138 63.6111 60 65 60ZM20 55C18.6111 55 17.4306 54.5138 16.4583 53.5416C15.4861 52.5694 15 51.3888 15 50C15 48.6111 15.4861 47.4305 16.4583 46.4583C17.4306 45.4861 18.6111 45 20 45C21.3889 45 22.5694 45.4861 23.5417 46.4583C24.5139 47.4305 25 48.6111 25 50C25 51.3888 24.5139 52.5694 23.5417 53.5416C22.5694 54.5138 21.3889 55 20 55ZM66.6667 43.4166C68.1111 43.6944 69.3056 44.0694 70.25 44.5416C71.1944 45.0138 72.2222 45.7777 73.3333 46.8333V26.6666C73.3333 24.8333 72.6806 23.2638 71.375 21.9583C70.0694 20.6527 68.5 20 66.6667 20H45.6667L42.1667 16.3333L46.8333 11.6666L44.5 9.33329L32.6667 21.1666L35.1667 23.5L39.8333 18.8333L43.3333 22.3333V30C43.3333 31.8333 42.6806 33.4027 41.375 34.7083C40.0694 36.0138 38.5 36.6666 36.6667 36.6666H29.9167C31.1944 37.6111 32.2222 38.5833 33 39.5833C33.7778 40.5833 34.5556 41.8333 35.3333 43.3333H36.6667C40.3333 43.3333 43.4722 42.0277 46.0833 39.4166C48.6944 36.8055 50 33.6666 50 30V26.6666H66.6667V43.4166ZM53.4167 53.3333C53.75 51.8333 54.1528 50.625 54.625 49.7083C55.0972 48.7916 55.8333 47.7777 56.8333 46.6666H36.3333C36.5556 47.9444 36.6667 49.0555 36.6667 50C36.6667 50.9444 36.5556 52.0555 36.3333 53.3333H53.4167ZM65 66.6666C61.7778 66.6666 59.0278 65.5277 56.75 63.25C54.4722 60.9722 53.3333 58.2222 53.3333 55C53.3333 51.7777 54.4722 49.0277 56.75 46.75C59.0278 44.4722 61.7778 43.3333 65 43.3333C68.2222 43.3333 70.9722 44.4722 73.25 46.75C75.5278 49.0277 76.6667 51.7777 76.6667 55C76.6667 58.2222 75.5278 60.9722 73.25 63.25C70.9722 65.5277 68.2222 66.6666 65 66.6666ZM20 66.6666C15.3889 66.6666 11.4583 65.0416 8.20833 61.7916C4.95833 58.5416 3.33333 54.6111 3.33333 50C3.33333 45.3888 4.95833 41.4583 8.20833 38.2083C11.4583 34.9583 15.3889 33.3333 20 33.3333C24.6111 33.3333 28.5417 34.9583 31.7917 38.2083C35.0417 41.4583 36.6667 45.3888 36.6667 50C36.6667 54.6111 35.0417 58.5416 31.7917 61.7916C28.5417 65.0416 24.6111 66.6666 20 66.6666Z" fill="#191A47"/>
</g>
</svg>
