<svg width="45" height="45" viewBox="0 0 45 45" fill="none" xmlns="http://www.w3.org/2000/svg">
<g id="approval">
<mask id="mask0_9575_3796" style="mask-type:alpha" maskUnits="userSpaceOnUse" x="0" y="0" width="45" height="45">
<rect id="Bounding box" width="45" height="45" fill="#D9D9D9"/>
</mask>
<g mask="url(#mask0_9575_3796)">
<path id="approval_2" d="M7.5 41.25V30C7.5 28.9688 7.86719 28.0859 8.60156 27.3516C9.33594 26.6172 10.2188 26.25 11.25 26.25H33.75C34.7812 26.25 35.6641 26.6172 36.3984 27.3516C37.1328 28.0859 37.5 28.9688 37.5 30V41.25H7.5ZM11.25 33.75H33.75V30H11.25V33.75ZM22.5 26.25L13.125 13.125C13.125 10.5312 14.0391 8.32031 15.8672 6.49219C17.6953 4.66406 19.9062 3.75 22.5 3.75C25.0938 3.75 27.3047 4.66406 29.1328 6.49219C30.9609 8.32031 31.875 10.5312 31.875 13.125L22.5 26.25Z" fill="#03A8DA"/>
</g>
</g>
</svg>
