<svg width="53" height="58" viewBox="0 0 53 58" fill="none" xmlns="http://www.w3.org/2000/svg">
<path d="M7.0785 21.7493V2.41602H42.125L50.5833 10.8743V55.5827H4.66667M38.5 2.41602V14.4993H50.5833M11.9167 31.416H7.08333C4.66667 31.416 2.25 32.6243 2.25 35.041V42.291C2.25 44.7077 4.66667 45.916 7.08333 45.916H11.9167M27.0208 31.416H20.9792C17.3542 31.416 16.1458 32.6243 16.1458 35.041C16.1458 37.4577 17.3542 38.666 20.9792 38.666C24.6042 38.666 25.8125 39.8743 25.8125 42.291C25.8125 44.7077 24.6042 45.916 20.9792 45.916H14.9375M44.5417 28.9993V30.2077C44.5417 31.416 38.5 45.916 38.5 45.916H37.2917C37.2917 45.916 31.25 31.416 31.25 30.2077V28.9993" stroke="#47486C" stroke-width="4"/>
</svg>
