<svg width="38" height="38" viewBox="0 0 38 38" fill="none" xmlns="http://www.w3.org/2000/svg">
<path id="Vector" d="M6.4087 4.76902C9.87942 1.68984 14.3602 -0.00728738 19 2.35224e-05C29.4937 2.35224e-05 38 8.50631 38 19C38.0062 22.8834 36.8167 26.6746 34.5933 29.8585L29.45 19H34.2C34.2 15.9778 33.2991 13.0241 31.6124 10.5164C29.9257 8.00868 27.5296 6.0607 24.7304 4.92132C21.9312 3.78193 18.8559 3.50287 15.8973 4.11978C12.9387 4.73669 10.2312 6.22156 8.12059 8.38471L6.4106 4.77092L6.4087 4.76902ZM31.5913 33.231C28.1206 36.3102 23.6397 38.0073 19 38C8.5063 38 0 29.4937 0 19C0 14.9625 1.2597 11.2195 3.4067 8.14151L8.54999 19H3.8C3.79994 22.0222 4.70083 24.9759 6.38757 27.4836C8.07431 29.9913 10.4703 31.9393 13.2695 33.0787C16.0688 34.2181 19.1441 34.4971 22.1027 33.8802C25.0613 33.2633 27.7688 31.7784 29.8794 29.6153L31.5894 33.2291L31.5913 33.231ZM12.35 22.8H22.8C23.0519 22.8 23.2936 22.6999 23.4717 22.5217C23.6499 22.3436 23.75 22.102 23.75 21.85C23.75 21.598 23.6499 21.3564 23.4717 21.1782C23.2936 21.0001 23.0519 20.9 22.8 20.9H15.2C13.9402 20.9 12.732 20.3996 11.8412 19.5088C10.9504 18.618 10.45 17.4098 10.45 16.15C10.45 14.8902 10.9504 13.682 11.8412 12.7913C12.732 11.9005 13.9402 11.4 15.2 11.4H17.1V9.50001H20.9V11.4H25.65V15.2H15.2C14.948 15.2 14.7064 15.3001 14.5282 15.4783C14.3501 15.6564 14.25 15.898 14.25 16.15C14.25 16.402 14.3501 16.6436 14.5282 16.8218C14.7064 16.9999 14.948 17.1 15.2 17.1H22.8C24.0598 17.1 25.2679 17.6004 26.1587 18.4912C27.0495 19.382 27.55 20.5902 27.55 21.85C27.55 23.1098 27.0495 24.318 26.1587 25.2087C25.2679 26.0995 24.0598 26.6 22.8 26.6H20.9V28.5H17.1V26.6H12.35V22.8Z" fill="#2C42B5"/>
</svg>
