<svg width="82" height="82" viewBox="0 0 82 82" fill="none" xmlns="http://www.w3.org/2000/svg">
<circle cx="41" cy="41" r="40.5" fill="#FFF5D8" stroke="#FFCD3A"/>
<mask id="mask0_2796_1690" style="mask-type:alpha" maskUnits="userSpaceOnUse" x="22" y="22" width="38" height="38">
<rect x="22" y="22" width="38" height="38" fill="#D9D9D9"/>
</mask>
<g mask="url(#mask0_2796_1690)">
<path d="M31.5007 55.25V52.0833L33.084 50.5H28.334C27.4632 50.5 26.7177 50.1899 26.0975 49.5698C25.4774 48.9497 25.1673 48.2042 25.1673 47.3333V29.9167C25.1673 29.0458 25.4774 28.3003 26.0975 27.6802C26.7177 27.0601 27.4632 26.75 28.334 26.75H41.0007V29.9167H28.334V47.3333H53.6673V42.5833H56.834V47.3333C56.834 48.2042 56.5239 48.9497 55.9038 49.5698C55.2837 50.1899 54.5382 50.5 53.6673 50.5H48.9173L50.5007 52.0833V55.25H31.5007ZM45.7507 45.75L37.834 37.8333L40.0507 35.6167L44.1673 39.6938V26.75H47.334V39.6938L51.4507 35.6167L53.6673 37.8333L45.7507 45.75Z" fill="#8F700E"/>
</g>
</svg>
