<svg width="52" height="58" viewBox="0 0 52 58" fill="none" xmlns="http://www.w3.org/2000/svg">
<path d="M2.38573 5.43401L34.8582 0.794339C35.0415 0.768049 35.2283 0.781463 35.4059 0.833671C35.5835 0.885878 35.7478 0.97566 35.8877 1.09693C36.0276 1.2182 36.1398 1.36813 36.2167 1.53655C36.2936 1.70497 36.3333 1.88795 36.3333 2.07309V55.9278C36.3333 56.1127 36.2936 56.2955 36.2168 56.4637C36.1401 56.6319 36.0282 56.7817 35.8886 56.9029C35.749 57.0241 35.585 57.114 35.4077 57.1664C35.2304 57.2188 35.0439 57.2325 34.8608 57.2066L2.38315 52.5669C1.76733 52.4792 1.20383 52.1723 0.796175 51.7024C0.388516 51.2326 0.164068 50.6315 0.164062 50.0094V7.99151C0.164068 7.36947 0.388516 6.76833 0.796175 6.2985C1.20383 5.82867 1.76991 5.52171 2.38573 5.43401ZM5.33331 10.2313V47.7671L31.1666 51.4613V6.53709L5.33331 10.2313ZM38.9166 47.0825H46.6666V10.9158H38.9166V5.74917H49.25C49.9351 5.74917 50.5922 6.02134 51.0767 6.50581C51.5611 6.99028 51.8333 7.64736 51.8333 8.33251V49.6658C51.8333 50.351 51.5611 51.0081 51.0767 51.4925C50.5922 51.977 49.9351 52.2492 49.25 52.2492H38.9166V47.0825ZM21.35 28.9992L28.5833 39.3325H22.3833L18.25 33.427L14.1166 39.3325H7.91665L15.15 28.9992L7.91665 18.6658H14.1166L18.25 24.5713L22.3833 18.6658H28.5833L21.35 28.9992Z" fill="#47486C"/>
</svg>
