<svg width="24" height="24" viewBox="0 0 24 24" fill="none" xmlns="http://www.w3.org/2000/svg">
<path d="M3.064 7.51C3.89601 5.85324 5.17237 4.46051 6.75043 3.48747C8.32849 2.51443 10.1461 1.99942 12 2C14.695 2 16.959 2.99 18.69 4.605L15.823 7.473C14.786 6.482 13.468 5.977 12 5.977C9.395 5.977 7.19 7.737 6.405 10.1C6.205 10.7 6.091 11.34 6.091 12C6.091 12.66 6.205 13.3 6.405 13.9C7.191 16.264 9.395 18.023 12 18.023C13.345 18.023 14.49 17.668 15.386 17.068C15.9054 16.726 16.3501 16.2822 16.6932 15.7635C17.0363 15.2448 17.2706 14.6619 17.382 14.05H12V10.182H21.418C21.536 10.836 21.6 11.518 21.6 12.227C21.6 15.273 20.51 17.837 18.618 19.577C16.964 21.105 14.7 22 12 22C10.6866 22.0005 9.38604 21.7422 8.17254 21.2399C6.95905 20.7375 5.85645 20.0009 4.92776 19.0722C3.99907 18.1436 3.2625 17.041 2.76013 15.8275C2.25777 14.614 1.99948 13.3134 2 12C2 10.386 2.386 8.86 3.064 7.51Z" fill="#191A47"/>
<path fill-rule="evenodd" clip-rule="evenodd" d="M21.6 12.2273C21.6 11.5182 21.5364 10.8364 21.4182 10.1819H12V14.0501H17.3818C17.15 15.3001 16.4455 16.3592 15.3864 17.0682V19.5773H18.6182C20.5091 17.8364 21.6 15.2728 21.6 12.2273Z" fill="#4285F4"/>
<path fill-rule="evenodd" clip-rule="evenodd" d="M11.9998 21.9999C14.6998 21.9999 16.9635 21.1044 18.618 19.5772L15.3862 17.0681C14.4907 17.6681 13.3453 18.0226 11.9998 18.0226C9.39529 18.0226 7.19075 16.2635 6.40439 13.8999H3.06348V16.4908C4.70893 19.759 8.09075 21.9999 11.9998 21.9999Z" fill="#34A853"/>
<path fill-rule="evenodd" clip-rule="evenodd" d="M6.40455 13.8999C6.20455 13.2999 6.09091 12.659 6.09091 11.9999C6.09091 11.3409 6.20455 10.6999 6.40455 10.0999V7.50903H3.06364C2.38636 8.85903 2 10.3863 2 11.9999C2 13.6136 2.38636 15.1409 3.06364 16.4909L6.40455 13.8999Z" fill="#FBBC05"/>
<path fill-rule="evenodd" clip-rule="evenodd" d="M11.9998 5.97727C13.468 5.97727 14.7862 6.48182 15.8226 7.47273L18.6907 4.60455C16.9589 2.99091 14.6953 2 11.9998 2C8.09075 2 4.70893 4.24091 3.06348 7.50909L6.40439 10.1C7.19075 7.73636 9.39529 5.97727 11.9998 5.97727Z" fill="#EA4335"/>
</svg>
