<svg width="68" height="68" viewBox="0 0 68 68" fill="none" xmlns="http://www.w3.org/2000/svg">
<path d="M34 67.3334C29.9445 66.8334 25.9167 65.7361 21.9167 64.0417C17.9167 62.3472 14.3472 59.9167 11.2084 56.75C8.06946 53.5834 5.5278 49.5834 3.58335 44.75C1.63891 39.9167 0.666687 34.1111 0.666687 27.3334V24H4.00002C6.83335 24 9.75002 24.3611 12.75 25.0834C15.75 25.8056 18.5556 26.8889 21.1667 28.3334C21.8334 23.5556 23.3472 18.6528 25.7084 13.625C28.0695 8.59724 30.8334 4.2778 34 0.666687C37.1667 4.2778 39.9306 8.59724 42.2917 13.625C44.6528 18.6528 46.1667 23.5556 46.8334 28.3334C49.4445 26.8889 52.25 25.8056 55.25 25.0834C58.25 24.3611 61.1667 24 64 24H67.3334V27.3334C67.3334 34.1111 66.3611 39.9167 64.4167 44.75C62.4722 49.5834 59.9306 53.5834 56.7917 56.75C53.6528 59.9167 50.0972 62.3472 46.125 64.0417C42.1528 65.7361 38.1111 66.8334 34 67.3334ZM33.8334 60.5C33.2222 51.2778 30.4861 44.3056 25.625 39.5834C20.7639 34.8611 14.7222 31.9445 7.50002 30.8334C8.11113 40.3334 10.9306 47.4167 15.9584 52.0834C20.9861 56.75 26.9445 59.5556 33.8334 60.5ZM34 39.3334C34.8334 38.1111 35.8472 36.8472 37.0417 35.5417C38.2361 34.2361 39.3889 33.1111 40.5 32.1667C40.3889 29 39.7639 25.6945 38.625 22.25C37.4861 18.8056 35.9445 15.4445 34 12.1667C32.0556 15.4445 30.5139 18.8056 29.375 22.25C28.2361 25.6945 27.6111 29 27.5 32.1667C28.6111 33.1111 29.7778 34.2361 31 35.5417C32.2222 36.8472 33.2222 38.1111 34 39.3334ZM40.5 59C42.5556 58.3334 44.6945 57.3611 46.9167 56.0834C49.1389 54.8056 51.2084 53.0695 53.125 50.875C55.0417 48.6806 56.6806 45.9445 58.0417 42.6667C59.4028 39.3889 60.2222 35.4445 60.5 30.8334C55.2778 31.6111 50.6945 33.3472 46.75 36.0417C42.8056 38.7361 39.7778 42.1667 37.6667 46.3334C38.3334 48.1111 38.9028 50.0556 39.375 52.1667C39.8472 54.2778 40.2222 56.5556 40.5 59Z" fill="#191A47"/>
</svg>
