<svg width="80" height="80" viewBox="0 0 80 80" fill="none" xmlns="http://www.w3.org/2000/svg">
<mask id="mask0_11420_4350" style="mask-type:alpha" maskUnits="userSpaceOnUse" x="0" y="0" width="80" height="80">
<rect width="80" height="80" fill="#D9D9D9"/>
</mask>
<g mask="url(#mask0_11420_4350)">
<path d="M33.3333 73.3333V66.6667H76.6666V73.3333H33.3333ZM36.6666 63.3333C36.6666 58.8333 38.0833 54.9028 40.9166 51.5417C43.75 48.1806 47.3333 46.1111 51.6666 45.3333V43.25C51.6666 42.3056 51.9861 41.5139 52.625 40.875C53.2639 40.2361 54.0555 39.9167 55 39.9167C55.9444 39.9167 56.7361 40.2361 57.375 40.875C58.0139 41.5139 58.3333 42.3056 58.3333 43.25V45.3333C62.6111 46.1111 66.1805 48.1806 69.0416 51.5417C71.9028 54.9028 73.3333 58.8333 73.3333 63.3333H36.6666ZM45.4166 56.5833H64.4167C63.3611 55.0833 62.0139 53.875 60.375 52.9583C58.7361 52.0417 56.9444 51.5833 55 51.5833C53 51.5833 51.1666 52.0417 49.5 52.9583C47.8333 53.875 46.4722 55.0833 45.4166 56.5833ZM3.33331 43.3333V6.66667H23.3333V11.5L46.6666 5L73.3333 13.3333V16.6667C73.3333 19.4444 72.3611 21.8056 70.4166 23.75C68.4722 25.6944 66.1111 26.6667 63.3333 26.6667H56.6666V28.6667C56.6666 30.0556 56.2639 31.3194 55.4583 32.4583C54.6528 33.5972 53.6111 34.4167 52.3333 34.9167L29.8333 43.3333H3.33331ZM9.99998 36.6667H16.6666V13.3333H9.99998V36.6667ZM23.3333 36.6667H28.6666L48 29.5833C48.6111 29.3611 49.0972 28.9861 49.4583 28.4583C49.8194 27.9306 50 27.3333 50 26.6667H44.0833L34.3333 29.8333L32.3333 23.5L42.75 20H63.3333C63.8333 20 64.4583 19.8194 65.2083 19.4583C65.9583 19.0972 66.3333 18.6667 66.3333 18.1667L46.5 12L23.3333 18.3333V36.6667Z" fill="#191A47"/>
</g>
</svg>
