<svg width="80" height="80" viewBox="0 0 80 80" fill="none" xmlns="http://www.w3.org/2000/svg">
<mask id="mask0_11420_4367" style="mask-type:alpha" maskUnits="userSpaceOnUse" x="0" y="0" width="80" height="80">
<rect width="80" height="80" fill="#D9D9D9"/>
</mask>
<g mask="url(#mask0_11420_4367)">
<path d="M13.3333 73.3334C11.5 73.3334 9.93056 72.6806 8.62501 71.375C7.31945 70.0695 6.66667 68.5 6.66667 66.6667V30C6.66667 28.1667 7.31945 26.5972 8.62501 25.2917C9.93056 23.9861 11.5 23.3334 13.3333 23.3334H30V13.3334C30 11.5 30.6528 9.93058 31.9583 8.62502C33.2639 7.31946 34.8333 6.66669 36.6667 6.66669H43.3333C45.1667 6.66669 46.7361 7.31946 48.0417 8.62502C49.3472 9.93058 50 11.5 50 13.3334V23.3334H66.6667C68.5 23.3334 70.0695 23.9861 71.375 25.2917C72.6806 26.5972 73.3333 28.1667 73.3333 30V66.6667C73.3333 68.5 72.6806 70.0695 71.375 71.375C70.0695 72.6806 68.5 73.3334 66.6667 73.3334H13.3333ZM13.3333 66.6667H66.6667V30H50C50 31.8334 49.3472 33.4028 48.0417 34.7084C46.7361 36.0139 45.1667 36.6667 43.3333 36.6667H36.6667C34.8333 36.6667 33.2639 36.0139 31.9583 34.7084C30.6528 33.4028 30 31.8334 30 30H13.3333V66.6667ZM20 60H40V58.5C40 57.5556 39.7361 56.6806 39.2083 55.875C38.6806 55.0695 37.9445 54.4445 37 54C35.8889 53.5 34.7639 53.125 33.625 52.875C32.4861 52.625 31.2778 52.5 30 52.5C28.7222 52.5 27.5139 52.625 26.375 52.875C25.2361 53.125 24.1111 53.5 23 54C22.0556 54.4445 21.3194 55.0695 20.7917 55.875C20.2639 56.6806 20 57.5556 20 58.5V60ZM46.6667 55H60V50H46.6667V55ZM30 50C31.3889 50 32.5694 49.5139 33.5417 48.5417C34.5139 47.5695 35 46.3889 35 45C35 43.6111 34.5139 42.4306 33.5417 41.4584C32.5694 40.4861 31.3889 40 30 40C28.6111 40 27.4306 40.4861 26.4583 41.4584C25.4861 42.4306 25 43.6111 25 45C25 46.3889 25.4861 47.5695 26.4583 48.5417C27.4306 49.5139 28.6111 50 30 50ZM46.6667 45H60V40H46.6667V45ZM36.6667 30H43.3333V13.3334H36.6667V30Z" fill="#191A47"/>
</g>
</svg>
