<svg width="80" height="80" viewBox="0 0 80 80" fill="none" xmlns="http://www.w3.org/2000/svg">
<mask id="mask0_11420_4341" style="mask-type:alpha" maskUnits="userSpaceOnUse" x="0" y="0" width="80" height="80">
<rect width="80" height="80" fill="#D9D9D9"/>
</mask>
<g mask="url(#mask0_11420_4341)">
<path d="M56.6666 56.6666C58.0555 56.6666 59.2361 56.1805 60.2083 55.2083C61.1805 54.2361 61.6666 53.0555 61.6666 51.6666C61.6666 50.2777 61.1805 49.0972 60.2083 48.125C59.2361 47.1527 58.0555 46.6666 56.6666 46.6666C55.2778 46.6666 54.0972 47.1527 53.125 48.125C52.1528 49.0972 51.6666 50.2777 51.6666 51.6666C51.6666 53.0555 52.1528 54.2361 53.125 55.2083C54.0972 56.1805 55.2778 56.6666 56.6666 56.6666ZM56.6666 66.6666C58.3889 66.6666 59.9722 66.2639 61.4166 65.4583C62.8611 64.6527 64.0278 63.5833 64.9166 62.25C63.6944 61.5277 62.3889 60.9722 61 60.5833C59.6111 60.1944 58.1666 60 56.6666 60C55.1666 60 53.7222 60.1944 52.3333 60.5833C50.9444 60.9722 49.6389 61.5277 48.4166 62.25C49.3055 63.5833 50.4722 64.6527 51.9166 65.4583C53.3611 66.2639 54.9444 66.6666 56.6666 66.6666ZM40 73.3333C32.2778 71.3888 25.9028 66.9583 20.875 60.0416C15.8472 53.125 13.3333 45.4444 13.3333 37V16.6666L40 6.66663L66.6666 16.6666V35.5833C65.6111 35.1388 64.5278 34.7361 63.4166 34.375C62.3055 34.0138 61.1666 33.75 60 33.5833V21.3333L40 13.8333L20 21.3333V37C20 39.6111 20.3472 42.2222 21.0416 44.8333C21.7361 47.4444 22.7083 49.9305 23.9583 52.2916C25.2083 54.6527 26.7222 56.8333 28.5 58.8333C30.2778 60.8333 32.25 62.5 34.4166 63.8333C35.0278 65.6111 35.8333 67.3055 36.8333 68.9166C37.8333 70.5277 38.9722 71.9722 40.25 73.25C40.1944 73.25 40.1528 73.2638 40.125 73.2916C40.0972 73.3194 40.0555 73.3333 40 73.3333ZM56.6666 73.3333C52.0555 73.3333 48.125 71.7083 44.875 68.4583C41.625 65.2083 40 61.2777 40 56.6666C40 52.0555 41.625 48.125 44.875 44.875C48.125 41.625 52.0555 40 56.6666 40C61.2778 40 65.2083 41.625 68.4583 44.875C71.7083 48.125 73.3333 52.0555 73.3333 56.6666C73.3333 61.2777 71.7083 65.2083 68.4583 68.4583C65.2083 71.7083 61.2778 73.3333 56.6666 73.3333Z" fill="#191A47"/>
</g>
</svg>
