<svg width="50" height="50" viewBox="0 0 50 50" fill="none" xmlns="http://www.w3.org/2000/svg">
<mask id="mask0_1878_1494" style="mask-type:alpha" maskUnits="userSpaceOnUse" x="0" y="0" width="50" height="50">
<rect width="50" height="50" fill="#D9D9D9"/>
</mask>
<g mask="url(#mask0_1878_1494)">
<path d="M12.5 47.9167C10.7639 47.9167 9.28819 47.309 8.07292 46.0938C6.85764 44.8785 6.25 43.4028 6.25 41.6667C6.25 39.9306 6.85764 38.4549 8.07292 37.2396C9.28819 36.0243 10.7639 35.4167 12.5 35.4167C12.9861 35.4167 13.4375 35.4688 13.8542 35.5729C14.2708 35.6771 14.6701 35.816 15.0521 35.9896L18.0208 32.2917C17.0486 31.2153 16.3715 30 15.9896 28.6458C15.6076 27.2917 15.5208 25.9375 15.7292 24.5833L11.5104 23.1771C10.9201 24.0451 10.1736 24.7396 9.27083 25.2604C8.36805 25.7813 7.36111 26.0417 6.25 26.0417C4.51389 26.0417 3.03819 25.434 1.82292 24.2188C0.607639 23.0035 0 21.5278 0 19.7917C0 18.0556 0.607639 16.5799 1.82292 15.3646C3.03819 14.1493 4.51389 13.5417 6.25 13.5417C7.98611 13.5417 9.46181 14.1493 10.6771 15.3646C11.8924 16.5799 12.5 18.0556 12.5 19.7917V20.2083L16.7187 21.6667C17.4132 20.4167 18.3424 19.3576 19.5062 18.4896C20.6687 17.6215 21.9792 17.066 23.4375 16.8229V12.2917C22.0833 11.9097 20.9632 11.1715 20.0771 10.0771C19.1924 8.98403 18.75 7.70833 18.75 6.25C18.75 4.51389 19.3576 3.03819 20.5729 1.82292C21.7882 0.607639 23.2639 0 25 0C26.7361 0 28.2118 0.607639 29.4271 1.82292C30.6424 3.03819 31.25 4.51389 31.25 6.25C31.25 7.70833 30.7986 8.98403 29.8958 10.0771C28.9931 11.1715 27.8819 11.9097 26.5625 12.2917V16.8229C28.0208 17.066 29.3319 17.6215 30.4958 18.4896C31.6583 19.3576 32.5868 20.4167 33.2812 21.6667L37.5 20.2083V19.7917C37.5 18.0556 38.1076 16.5799 39.3229 15.3646C40.5382 14.1493 42.0139 13.5417 43.75 13.5417C45.4861 13.5417 46.9618 14.1493 48.1771 15.3646C49.3924 16.5799 50 18.0556 50 19.7917C50 21.5278 49.3924 23.0035 48.1771 24.2188C46.9618 25.434 45.4861 26.0417 43.75 26.0417C42.6389 26.0417 41.6236 25.7813 40.7042 25.2604C39.7833 24.7396 39.0451 24.0451 38.4896 23.1771L34.2708 24.5833C34.4792 25.9375 34.3924 27.2826 34.0104 28.6188C33.6285 29.9563 32.9514 31.1806 31.9792 32.2917L34.9479 35.9375C35.3299 35.7639 35.7292 35.6333 36.1458 35.5458C36.5625 35.4597 37.0139 35.4167 37.5 35.4167C39.2361 35.4167 40.7118 36.0243 41.9271 37.2396C43.1424 38.4549 43.75 39.9306 43.75 41.6667C43.75 43.4028 43.1424 44.8785 41.9271 46.0938C40.7118 47.309 39.2361 47.9167 37.5 47.9167C35.7639 47.9167 34.2882 47.309 33.0729 46.0938C31.8576 44.8785 31.25 43.4028 31.25 41.6667C31.25 40.9722 31.3632 40.3042 31.5896 39.6625C31.8146 39.0194 32.1181 38.4375 32.5 37.9167L29.5312 34.2188C28.1076 35.0174 26.5889 35.4167 24.975 35.4167C23.3597 35.4167 21.8403 35.0174 20.4167 34.2188L17.5 37.9167C17.8819 38.4375 18.1861 39.0194 18.4125 39.6625C18.6375 40.3042 18.75 40.9722 18.75 41.6667C18.75 43.4028 18.1424 44.8785 16.9271 46.0938C15.7118 47.309 14.2361 47.9167 12.5 47.9167Z" fill="#D8CBF6"/>
</g>
<circle cx="25.0463" cy="26.4365" r="9.76852" fill="#29008A"/>
</svg>
