<svg width="45" height="45" viewBox="0 0 45 45" fill="none" xmlns="http://www.w3.org/2000/svg">
<g id="other_admission">
<mask id="mask0_9575_3790" style="mask-type:alpha" maskUnits="userSpaceOnUse" x="0" y="0" width="45" height="45">
<rect id="Bounding box" width="45" height="45" fill="#D9D9D9"/>
</mask>
<g mask="url(#mask0_9575_3790)">
<path id="other_admission_2" d="M28.5938 35.1562C28.9688 35.1562 29.2969 35.0156 29.5781 34.7344C29.8594 34.4531 30 34.125 30 33.75C30 33.375 29.8594 33.0469 29.5781 32.7656C29.2969 32.4844 28.9688 32.3438 28.5938 32.3438C28.2188 32.3438 27.8906 32.4844 27.6094 32.7656C27.3281 33.0469 27.1875 33.375 27.1875 33.75C27.1875 34.125 27.3281 34.4531 27.6094 34.7344C27.8906 35.0156 28.2188 35.1562 28.5938 35.1562ZM33.75 35.1562C34.125 35.1562 34.4531 35.0156 34.7344 34.7344C35.0156 34.4531 35.1562 34.125 35.1562 33.75C35.1562 33.375 35.0156 33.0469 34.7344 32.7656C34.4531 32.4844 34.125 32.3438 33.75 32.3438C33.375 32.3438 33.0469 32.4844 32.7656 32.7656C32.4844 33.0469 32.3438 33.375 32.3438 33.75C32.3438 34.125 32.4844 34.4531 32.7656 34.7344C33.0469 35.0156 33.375 35.1562 33.75 35.1562ZM38.9062 35.1562C39.2812 35.1562 39.6094 35.0156 39.8906 34.7344C40.1719 34.4531 40.3125 34.125 40.3125 33.75C40.3125 33.375 40.1719 33.0469 39.8906 32.7656C39.6094 32.4844 39.2812 32.3438 38.9062 32.3438C38.5312 32.3438 38.2031 32.4844 37.9219 32.7656C37.6406 33.0469 37.5 33.375 37.5 33.75C37.5 34.125 37.6406 34.4531 37.9219 34.7344C38.2031 35.0156 38.5312 35.1562 38.9062 35.1562ZM33.75 43.125C31.1562 43.125 28.9453 42.2109 27.1172 40.3828C25.2891 38.5547 24.375 36.3438 24.375 33.75C24.375 31.1562 25.2891 28.9453 27.1172 27.1172C28.9453 25.2891 31.1562 24.375 33.75 24.375C36.3438 24.375 38.5547 25.2891 40.3828 27.1172C42.2109 28.9453 43.125 31.1562 43.125 33.75C43.125 36.3438 42.2109 38.5547 40.3828 40.3828C38.5547 42.2109 36.3438 43.125 33.75 43.125ZM13.125 16.875H31.875V13.125H13.125V16.875ZM21.8906 39.375H9.375C8.34375 39.375 7.46094 39.0078 6.72656 38.2734C5.99219 37.5391 5.625 36.6562 5.625 35.625V9.375C5.625 8.34375 5.99219 7.46094 6.72656 6.72656C7.46094 5.99219 8.34375 5.625 9.375 5.625H35.625C36.6562 5.625 37.5391 5.99219 38.2734 6.72656C39.0078 7.46094 39.375 8.34375 39.375 9.375V21.9375C38.4688 21.5 37.5547 21.1719 36.6328 20.9531C35.7109 20.7344 34.75 20.625 33.75 20.625C33.4062 20.625 33.0859 20.6328 32.7891 20.6484C32.4922 20.6641 32.1875 20.7031 31.875 20.7656V20.625H13.125V24.375H24.6094C24.0469 24.9062 23.5391 25.4844 23.0859 26.1094C22.6328 26.7344 22.2344 27.4062 21.8906 28.125H13.125V31.875H20.7656C20.7031 32.1875 20.6641 32.4922 20.6484 32.7891C20.6328 33.0859 20.625 33.4062 20.625 33.75C20.625 34.7812 20.7188 35.7422 20.9063 36.6328C21.0938 37.5234 21.4219 38.4375 21.8906 39.375Z" fill="#8F700E"/>
</g>
</g>
</svg>
