<svg width="54" height="54" viewBox="0 0 54 54" fill="none" xmlns="http://www.w3.org/2000/svg">
<path d="M18.9997 28.332H21.6663V22.9987H24.333C25.0886 22.9987 25.7219 22.7431 26.233 22.232C26.7441 21.7209 26.9997 21.0876 26.9997 20.332V17.6654C26.9997 16.9098 26.7441 16.2765 26.233 15.7654C25.7219 15.2543 25.0886 14.9987 24.333 14.9987H18.9997V28.332ZM21.6663 20.332V17.6654H24.333V20.332H21.6663ZM29.6663 28.332H34.9997C35.7552 28.332 36.3886 28.0765 36.8997 27.5654C37.4108 27.0543 37.6663 26.4209 37.6663 25.6654V17.6654C37.6663 16.9098 37.4108 16.2765 36.8997 15.7654C36.3886 15.2543 35.7552 14.9987 34.9997 14.9987H29.6663V28.332ZM32.333 25.6654V17.6654H34.9997V25.6654H32.333ZM40.333 28.332H42.9997V22.9987H45.6663V20.332H42.9997V17.6654H45.6663V14.9987H40.333V28.332ZM16.333 42.9987C14.8663 42.9987 13.6108 42.4765 12.5663 41.432C11.5219 40.3876 10.9997 39.132 10.9997 37.6654V5.66536C10.9997 4.1987 11.5219 2.94314 12.5663 1.8987C13.6108 0.854253 14.8663 0.332031 16.333 0.332031H48.333C49.7997 0.332031 51.0552 0.854253 52.0997 1.8987C53.1441 2.94314 53.6663 4.1987 53.6663 5.66536V37.6654C53.6663 39.132 53.1441 40.3876 52.0997 41.432C51.0552 42.4765 49.7997 42.9987 48.333 42.9987H16.333ZM16.333 37.6654H48.333V5.66536H16.333V37.6654ZM5.66634 53.6654C4.19967 53.6654 2.94412 53.1431 1.89967 52.0987C0.85523 51.0543 0.333008 49.7987 0.333008 48.332V10.9987H5.66634V48.332H42.9997V53.6654H5.66634Z" fill="#47486C"/>
</svg>
