<svg width="80" height="80" viewBox="0 0 80 80" fill="none" xmlns="http://www.w3.org/2000/svg">
<mask id="mask0_11420_4392" style="mask-type:alpha" maskUnits="userSpaceOnUse" x="0" y="0" width="80" height="80">
<rect width="80" height="80" fill="#D9D9D9"/>
</mask>
<g mask="url(#mask0_11420_4392)">
<path d="M6.66667 70V10H40V23.3333H73.3333V70H6.66667ZM13.3333 63.3333H20V56.6667H13.3333V63.3333ZM13.3333 50H20V43.3333H13.3333V50ZM13.3333 36.6667H20V30H13.3333V36.6667ZM13.3333 23.3333H20V16.6667H13.3333V23.3333ZM26.6667 63.3333H33.3333V56.6667H26.6667V63.3333ZM26.6667 50H33.3333V43.3333H26.6667V50ZM26.6667 36.6667H33.3333V30H26.6667V36.6667ZM26.6667 23.3333H33.3333V16.6667H26.6667V23.3333ZM40 63.3333H66.6667V30H40V36.6667H46.6667V43.3333H40V50H46.6667V56.6667H40V63.3333ZM53.3333 43.3333V36.6667H60V43.3333H53.3333ZM53.3333 56.6667V50H60V56.6667H53.3333Z" fill="#191A47"/>
</g>
</svg>
