<svg width="60" height="71" viewBox="0 0 60 71" fill="none" xmlns="http://www.w3.org/2000/svg">
<path d="M6.66667 70.3333C4.83333 70.3333 3.26389 69.6805 1.95833 68.375C0.652778 67.0694 0 65.5 0 63.6666V23.6666C0 21.8333 0.652778 20.2639 1.95833 18.9583C3.26389 17.6528 4.83333 17 6.66667 17H13.3333C13.3333 12.3889 14.9583 8.45831 18.2083 5.20831C21.4583 1.95831 25.3889 0.333313 30 0.333313C34.6111 0.333313 38.5417 1.95831 41.7917 5.20831C45.0417 8.45831 46.6667 12.3889 46.6667 17H53.3333C55.1667 17 56.7361 17.6528 58.0417 18.9583C59.3472 20.2639 60 21.8333 60 23.6666V63.6666C60 65.5 59.3472 67.0694 58.0417 68.375C56.7361 69.6805 55.1667 70.3333 53.3333 70.3333H6.66667ZM6.66667 63.6666H53.3333V23.6666H6.66667V63.6666ZM30 43.6666C34.6111 43.6666 38.5417 42.0416 41.7917 38.7916C45.0417 35.5416 46.6667 31.6111 46.6667 27H40C40 29.7778 39.0278 32.1389 37.0833 34.0833C35.1389 36.0278 32.7778 37 30 37C27.2222 37 24.8611 36.0278 22.9167 34.0833C20.9722 32.1389 20 29.7778 20 27H13.3333C13.3333 31.6111 14.9583 35.5416 18.2083 38.7916C21.4583 42.0416 25.3889 43.6666 30 43.6666ZM20 17H40C40 14.2222 39.0278 11.8611 37.0833 9.91665C35.1389 7.9722 32.7778 6.99998 30 6.99998C27.2222 6.99998 24.8611 7.9722 22.9167 9.91665C20.9722 11.8611 20 14.2222 20 17Z" fill="#191A47"/>
</svg>
