<svg width="50" height="50" viewBox="0 0 50 50" fill="none" xmlns="http://www.w3.org/2000/svg">
<mask id="mask0_1878_1506" style="mask-type:alpha" maskUnits="userSpaceOnUse" x="0" y="0" width="50" height="50">
<rect width="50" height="50" fill="#D9D9D9"/>
</mask>
<g mask="url(#mask0_1878_1506)">
<path d="M5.46842 37.8659L2.08301 35.418L12.4997 18.7513L18.7497 26.043L27.083 12.5013L32.7601 20.9909C31.9615 21.0256 31.2059 21.1207 30.4934 21.2763C29.7823 21.4332 29.0795 21.6506 28.3851 21.9284L27.2393 20.2096L19.3226 33.0742L13.0205 25.7305L5.46842 37.8659ZM44.9476 47.918L38.4372 41.4076C37.7427 41.8937 36.9698 42.2582 36.1184 42.5013C35.2684 42.7444 34.392 42.8659 33.4893 42.8659C30.8851 42.8659 28.6719 41.9541 26.8497 40.1305C25.0261 38.3082 24.1143 36.0951 24.1143 33.4909C24.1143 30.8867 25.0261 28.6728 26.8497 26.8492C28.6719 25.027 30.8851 24.1159 33.4893 24.1159C36.0934 24.1159 38.3073 25.027 40.1309 26.8492C41.9531 28.6728 42.8643 30.8867 42.8643 33.4909C42.8643 34.3937 42.7427 35.2701 42.4997 36.1201C42.2566 36.9714 41.892 37.7617 41.4059 38.4909L47.9163 44.9492L44.9476 47.918ZM33.4893 38.6992C34.9476 38.6992 36.1802 38.1957 37.1872 37.1888C38.1941 36.1819 38.6976 34.9492 38.6976 33.4909C38.6976 32.0326 38.1941 30.7999 37.1872 29.793C36.1802 28.786 34.9476 28.2826 33.4893 28.2826C32.0309 28.2826 30.7983 28.786 29.7913 29.793C28.7844 30.7999 28.2809 32.0326 28.2809 33.4909C28.2809 34.9492 28.7844 36.1819 29.7913 37.1888C30.7983 38.1957 32.0309 38.6992 33.4893 38.6992ZM38.1247 22.0326C37.465 21.7548 36.7788 21.5291 36.0663 21.3555C35.3552 21.1819 34.6177 21.0777 33.8538 21.043L44.5309 4.16797L47.9163 6.61589L38.1247 22.0326Z" fill="#03A8DA"/>
</g>
<mask id="mask1_1878_1506" style="mask-type:alpha" maskUnits="userSpaceOnUse" x="0" y="0" width="50" height="50">
<rect width="50" height="50" fill="#D9D9D9"/>
</mask>
<g mask="url(#mask1_1878_1506)">
<path d="M5.46842 37.8659L2.08301 35.418L12.4997 18.7513L18.7497 26.043L27.083 12.5013L32.7601 20.9909C31.9615 21.0256 31.2059 21.1207 30.4934 21.2763C29.7823 21.4332 29.0795 21.6506 28.3851 21.9284L27.2393 20.2096L19.3226 33.0742L13.0205 25.7305L5.46842 37.8659ZM38.1247 22.0326C37.4649 21.7548 36.7788 21.5291 36.0663 21.3555C35.3552 21.1819 34.6177 21.0777 33.8538 21.043L44.5309 4.16797L47.9163 6.61589L38.1247 22.0326Z" fill="#BEEDFB"/>
</g>
</svg>
