<svg width="60" height="60" viewBox="0 0 60 60" fill="none" xmlns="http://www.w3.org/2000/svg">
<g clip-path="url(#clip0_5531_2473)">
<path d="M57.8763 34.9244C57.8573 35.0299 57.844 35.1363 57.8241 35.2417L57.7214 34.6374C57.7775 34.7315 57.8241 34.8294 57.8763 34.9244C58.1861 33.2387 58.3486 31.5132 58.3486 29.7886C58.3486 25.9641 57.5998 22.2535 56.1204 18.7606C54.6932 15.3865 52.6512 12.3563 50.0477 9.75469C47.4479 7.15306 44.4159 5.11109 41.0436 3.6839C37.5517 2.20635 33.8412 1.4576 30.0166 1.4576C28.2141 1.4576 26.4087 1.62673 24.6518 1.96405C24.648 1.965 24.6433 1.965 24.6385 1.96595C24.7374 2.01821 24.8371 2.06477 24.934 2.11893L24.3383 2.02581C24.438 2.00681 24.5388 1.98591 24.6385 1.96595C22.2279 0.68414 19.517 0 16.7728 0C12.2927 0 8.08045 1.74456 4.9125 4.91345C1.74551 8.0814 0 12.2936 0 16.7738C0 19.6253 0.73355 22.4284 2.11038 24.9055C2.12843 24.8029 2.14079 24.6993 2.16074 24.5967L2.26336 25.1906C2.21015 25.0975 2.16359 25.0006 2.11038 24.9055C1.83102 26.5104 1.68374 28.1504 1.68374 29.7886C1.68374 33.6141 2.4325 37.3236 3.91195 40.8175C5.33724 44.1926 7.38016 47.2208 9.98084 49.8225C12.5844 52.4241 15.6126 54.4689 18.9887 55.8923C22.4806 57.3727 26.1921 58.1224 30.0166 58.1224C31.6814 58.1224 33.3499 57.9704 34.9785 57.6815C34.8835 57.6283 34.7866 57.5799 34.6897 57.5238L35.295 57.6302C35.1904 57.6502 35.085 57.6625 34.9785 57.6815C37.488 59.1011 40.3291 59.8556 43.23 59.8556C47.7092 59.8556 51.9196 58.1139 55.0875 54.944C58.2564 51.778 60 47.5648 60 43.0846C60 40.2236 59.2626 37.411 57.8763 34.9244ZM30.1297 47.1401C20.0643 47.1401 15.5613 42.1915 15.5613 38.4829C15.5613 36.5806 16.9657 35.2474 18.9013 35.2474C23.2085 35.2474 22.093 41.4323 30.1297 41.4323C34.244 41.4323 36.516 39.1984 36.516 36.9122C36.516 35.5373 35.8375 34.0131 33.1285 33.3452L24.1758 31.1103C16.9657 29.3021 15.6573 25.4044 15.6573 21.7404C15.6573 14.1332 22.8199 11.2769 29.5463 11.2769C35.7425 11.2769 43.0466 14.7014 43.0466 19.2652C43.0466 21.2207 41.3534 22.3581 39.4188 22.3581C35.7425 22.3581 36.419 17.2698 29.0142 17.2698C25.3398 17.2698 23.3045 18.9336 23.3045 21.3148C23.3045 23.6912 26.2064 24.4504 28.7263 25.0243L35.3529 26.4952C42.6114 28.1124 44.452 32.3503 44.452 36.3421C44.452 42.524 39.7067 47.1401 30.1297 47.1401ZM34.6897 57.5238C34.7866 57.5799 34.8835 57.6283 34.9785 57.6815C35.085 57.6625 35.1904 57.6502 35.295 57.6302L34.6897 57.5238ZM57.8241 35.2417C57.844 35.1363 57.8573 35.0299 57.8763 34.9244C57.8241 34.8294 57.7775 34.7315 57.7214 34.6374L57.8241 35.2417ZM2.16074 24.5967C2.14079 24.6993 2.12843 24.8029 2.11038 24.9055C2.16359 25.0006 2.21015 25.0975 2.26336 25.1906L2.16074 24.5967ZM24.934 2.11893C24.8371 2.06477 24.7374 2.01821 24.6385 1.96595C24.5388 1.98591 24.438 2.00681 24.3383 2.02581L24.934 2.11893Z" fill="#00AFF0"/>
</g>
<defs>
<clipPath id="clip0_5531_2473">
<rect width="60" height="60" fill="white"/>
</clipPath>
</defs>
</svg>
