<svg width="50" height="50" viewBox="0 0 50 50" fill="none" xmlns="http://www.w3.org/2000/svg">
<mask id="mask0_2015_1602" style="mask-type:alpha" maskUnits="userSpaceOnUse" x="0" y="0" width="50" height="50">
<rect width="50" height="50" fill="#D9D9D9"/>
</mask>
<g mask="url(#mask0_2015_1602)">
<path d="M8.33333 28.1771L13.5938 22.9167L8.33333 17.6563L3.07292 22.9167L8.33333 28.1771ZM36.4583 27.0833L41.6667 18.75L46.875 27.0833H36.4583ZM25 25C23.2639 25 21.7882 24.3924 20.5729 23.1771C19.3576 21.9618 18.75 20.4861 18.75 18.75C18.75 16.9792 19.3576 15.4944 20.5729 14.2958C21.7882 13.0986 23.2639 12.5 25 12.5C26.7708 12.5 28.2549 13.0986 29.4521 14.2958C30.6507 15.4944 31.25 16.9792 31.25 18.75C31.25 20.4861 30.6507 21.9618 29.4521 23.1771C28.2549 24.3924 26.7708 25 25 25ZM0 37.5V34.2187C0 32.691 0.772917 31.4667 2.31875 30.5458C3.86319 29.6264 5.86806 29.1667 8.33333 29.1667C8.78472 29.1667 9.21875 29.175 9.63542 29.1917C10.0521 29.2097 10.4514 29.2535 10.8333 29.3229C10.3472 30.0174 9.98264 30.7639 9.73958 31.5625C9.49653 32.3611 9.375 33.2118 9.375 34.1146V37.5H0ZM12.5 37.5V34.1146C12.5 31.8576 13.6549 30.0347 15.9646 28.6458C18.2729 27.2569 21.2847 26.5625 25 26.5625C28.75 26.5625 31.7708 27.2569 34.0625 28.6458C36.3542 30.0347 37.5 31.8576 37.5 34.1146V37.5H12.5ZM41.6667 29.1667C44.1667 29.1667 46.1806 29.6264 47.7083 30.5458C49.2361 31.4667 50 32.691 50 34.2187V37.5H40.625V34.1146C40.625 33.2118 40.5118 32.3611 40.2854 31.5625C40.0604 30.7639 39.7222 30.0174 39.2708 29.3229C39.6528 29.2535 40.0437 29.2097 40.4437 29.1917C40.8424 29.175 41.25 29.1667 41.6667 29.1667Z" fill="#EC627B"/>
</g>
<mask id="mask1_2015_1602" style="mask-type:alpha" maskUnits="userSpaceOnUse" x="0" y="0" width="50" height="50">
<rect width="50" height="50" fill="#D9D9D9"/>
</mask>
<g mask="url(#mask1_2015_1602)">
<path d="M25 25C23.2639 25 21.7882 24.3924 20.5729 23.1771C19.3576 21.9618 18.75 20.4861 18.75 18.75C18.75 16.9792 19.3576 15.4944 20.5729 14.2958C21.7882 13.0986 23.2639 12.5 25 12.5C26.7708 12.5 28.2549 13.0986 29.4521 14.2958C30.6507 15.4944 31.25 16.9792 31.25 18.75C31.25 20.4861 30.6507 21.9618 29.4521 23.1771C28.2549 24.3924 26.7708 25 25 25ZM12.5 37.5V34.1146C12.5 31.8576 13.6549 30.0347 15.9646 28.6458C18.2729 27.2569 21.2847 26.5625 25 26.5625C28.75 26.5625 31.7708 27.2569 34.0625 28.6458C36.3542 30.0347 37.5 31.8576 37.5 34.1146V37.5H12.5Z" fill="#F1E0AC"/>
</g>
</svg>
