<svg width="287" height="173" viewBox="0 0 287 173" fill="none" xmlns="http://www.w3.org/2000/svg">
<rect width="287" height="173" fill="#D8F6FF"/>
<path d="M20 24C20 21.7909 21.7909 20 24 20H263C265.209 20 267 21.7909 267 24V173H20V24Z" fill="white"/>
<rect x="20" y="61" width="247" height="1" fill="#F1F1F4"/>
<rect x="20" y="90" width="247" height="1" fill="#F1F1F4"/>
<rect x="20" y="119" width="247" height="1" fill="#F1F1F4"/>
<rect x="20" y="148" width="247" height="1" fill="#F1F1F4"/>
<mask id="mask0_12455_4208" style="mask-type:alpha" maskUnits="userSpaceOnUse" x="33" y="30" width="22" height="22">
<rect x="33" y="30" width="22" height="22" fill="#D9D9D9"/>
</mask>
<g mask="url(#mask0_12455_4208)">
<path d="M49.5003 41.9121V40.0788H53.1669V41.9121H49.5003ZM50.6003 48.3288L47.6669 46.1288L48.7669 44.6621L51.7003 46.8621L50.6003 48.3288ZM48.7669 37.3288L47.6669 35.8621L50.6003 33.6621L51.7003 35.1288L48.7669 37.3288ZM37.5836 47.4121V43.7454H36.6669C36.1628 43.7454 35.7312 43.5659 35.3721 43.2069C35.0131 42.8479 34.8336 42.4163 34.8336 41.9121V40.0788C34.8336 39.5746 35.0131 39.143 35.3721 38.784C35.7312 38.425 36.1628 38.2454 36.6669 38.2454H40.3336L44.9169 35.4954V46.4954L40.3336 43.7454H39.4169V47.4121H37.5836ZM45.8336 44.0663V37.9246C46.2461 38.2913 46.5784 38.7382 46.8305 39.2652C47.0825 39.7923 47.2086 40.3691 47.2086 40.9954C47.2086 41.6218 47.0825 42.1986 46.8305 42.7257C46.5784 43.2527 46.2461 43.6996 45.8336 44.0663ZM36.6669 40.0788V41.9121H40.8378L43.0836 43.2413V38.7496L40.8378 40.0788H36.6669Z" fill="#8C8DA3"/>
</g>
<rect x="43" y="75" width="40" height="73" fill="#D0F6E6"/>
<rect x="43" y="75" width="40" height="18" fill="#36B37E"/>
<rect x="50" y="160.5" width="8" height="2" fill="#D1D1DA"/>
<rect x="118" y="160.5" width="8" height="2" fill="#D1D1DA"/>
<rect x="194" y="160.5" width="8" height="2" fill="#D1D1DA"/>
<rect x="111" y="86" width="40" height="62" fill="#E7DDFF"/>
<rect x="111" y="86" width="40" height="18" fill="#29008A"/>
<rect x="187" y="95" width="40" height="53" fill="#8C8DA3"/>
<circle cx="45.5" cy="161.5" r="2.5" fill="#36B37E"/>
<circle cx="113.5" cy="161.5" r="2.5" fill="#29008A"/>
<circle cx="189.5" cy="161.5" r="2.5" fill="#8C8DA3"/>
<rect x="114" y="31" width="86" height="74" rx="4" fill="#F1F1F4"/>
<path d="M176.639 48.6V47.77H178.519V55H177.599V48.6H176.639ZM180.082 51.31C180.082 50.1633 180.269 49.27 180.642 48.63C181.015 47.9833 181.669 47.66 182.602 47.66C183.529 47.66 184.179 47.9833 184.552 48.63C184.925 49.27 185.112 50.1633 185.112 51.31C185.112 52.4767 184.925 53.3833 184.552 54.03C184.179 54.6767 183.529 55 182.602 55C181.669 55 181.015 54.6767 180.642 54.03C180.269 53.3833 180.082 52.4767 180.082 51.31ZM184.212 51.31C184.212 50.73 184.172 50.24 184.092 49.84C184.019 49.4333 183.862 49.1067 183.622 48.86C183.389 48.6133 183.049 48.49 182.602 48.49C182.149 48.49 181.802 48.6133 181.562 48.86C181.329 49.1067 181.172 49.4333 181.092 49.84C181.019 50.24 180.982 50.73 180.982 51.31C180.982 51.91 181.019 52.4133 181.092 52.82C181.172 53.2267 181.329 53.5533 181.562 53.8C181.802 54.0467 182.149 54.17 182.602 54.17C183.049 54.17 183.389 54.0467 183.622 53.8C183.862 53.5533 184.019 53.2267 184.092 52.82C184.172 52.4133 184.212 51.91 184.212 51.31Z" fill="#5E5F7E"/>
<path d="M182.341 83.48L179.561 90H178.641L181.461 83.57H177.601V82.79H182.341V83.48Z" fill="#5E5F7E"/>
<mask id="mask1_12455_4208" style="mask-type:alpha" maskUnits="userSpaceOnUse" x="129" y="76" width="20" height="20">
<rect x="129" y="76" width="20" height="20" fill="#D9D9D9"/>
</mask>
<g mask="url(#mask1_12455_4208)">
<path d="M132.333 92.6634C131.875 92.6634 131.483 92.5002 131.156 92.1738C130.83 91.8474 130.667 91.4551 130.667 90.9967V80.9967C130.667 80.5384 130.83 80.1461 131.156 79.8197C131.483 79.4933 131.875 79.3301 132.333 79.3301H145.667C146.125 79.3301 146.518 79.4933 146.844 79.8197C147.17 80.1461 147.334 80.5384 147.334 80.9967V90.9967C147.334 91.4551 147.17 91.8474 146.844 92.1738C146.518 92.5002 146.125 92.6634 145.667 92.6634H132.333ZM139 86.8301L145.667 82.6634V80.9967L139 85.1634L132.333 80.9967V82.6634L139 86.8301Z" fill="#D8CBF6"/>
</g>
<mask id="mask2_12455_4208" style="mask-type:alpha" maskUnits="userSpaceOnUse" x="128" y="42" width="20" height="20">
<rect x="128" y="42" width="20" height="20" fill="#D9D9D9"/>
</mask>
<g mask="url(#mask2_12455_4208)">
<path d="M132.167 59.5C131.708 59.5 131.316 59.3368 130.99 59.0104C130.663 58.684 130.5 58.2917 130.5 57.8333V47.4167C130.5 47.2083 130.535 47.0208 130.604 46.8542C130.674 46.6875 130.764 46.5278 130.875 46.375L132.042 44.9583C132.153 44.8056 132.292 44.691 132.458 44.6146C132.625 44.5382 132.806 44.5 133 44.5H143C143.194 44.5 143.375 44.5382 143.542 44.6146C143.708 44.691 143.847 44.8056 143.958 44.9583L145.125 46.375C145.236 46.5278 145.326 46.6875 145.396 46.8542C145.465 47.0208 145.5 47.2083 145.5 47.4167V57.8333C145.5 58.2917 145.337 58.684 145.01 59.0104C144.684 59.3368 144.292 59.5 143.833 59.5H132.167ZM132.5 47H143.5L142.792 46.1667H133.208L132.5 47ZM132.167 48.6667V57.8333H143.833V48.6667H132.167ZM138 57L141.333 53.6667L140.167 52.5L138.833 53.8333V50.3333H137.167V53.8333L135.833 52.5L134.667 53.6667L138 57Z" fill="#29008A"/>
</g>
</svg>
