<svg width="82" height="82" viewBox="0 0 82 82" fill="none" xmlns="http://www.w3.org/2000/svg">
<circle cx="41" cy="41" r="40.5" fill="#FFF5D8" stroke="#FFCD3A"/>
<mask id="mask0_2796_1756" style="mask-type:alpha" maskUnits="userSpaceOnUse" x="22" y="22" width="38" height="38">
<rect x="22" y="22" width="38" height="38" fill="#D9D9D9"/>
</mask>
<g mask="url(#mask0_2796_1756)">
<path d="M32.2917 53.6668C29.8903 53.6668 27.8386 52.8356 26.1365 51.1731C24.4344 49.5106 23.5833 47.4786 23.5833 45.0772C23.5833 43.0189 24.2035 41.1849 25.4438 39.5752C26.684 37.9654 28.307 36.9363 30.3125 36.4877C30.9722 34.0599 32.2917 32.0939 34.2708 30.5897C36.25 29.0856 38.4931 28.3335 41 28.3335C44.0875 28.3335 46.7066 29.4088 48.8573 31.5595C51.008 33.7102 52.0833 36.3293 52.0833 39.4168C53.9042 39.6279 55.4149 40.413 56.6156 41.772C57.8163 43.1311 58.4167 44.721 58.4167 46.5418C58.4167 48.521 57.724 50.2033 56.3386 51.5887C54.9531 52.9741 53.2708 53.6668 51.2917 53.6668H42.5833C41.7125 53.6668 40.967 53.3568 40.3469 52.7366C39.7267 52.1165 39.4167 51.371 39.4167 50.5002V42.346L36.8833 44.8002L34.6667 42.5835L41 36.2502L47.3333 42.5835L45.1167 44.8002L42.5833 42.346V50.5002H51.2917C52.4 50.5002 53.3368 50.1175 54.1021 49.3522C54.8674 48.587 55.25 47.6502 55.25 46.5418C55.25 45.4335 54.8674 44.4967 54.1021 43.7314C53.3368 42.9661 52.4 42.5835 51.2917 42.5835H48.9167V39.4168C48.9167 37.2266 48.1448 35.3595 46.6011 33.8158C45.0573 32.272 43.1903 31.5002 41 31.5002C38.8097 31.5002 36.9427 32.272 35.399 33.8158C33.8552 35.3595 33.0833 37.2266 33.0833 39.4168H32.2917C30.7611 39.4168 29.4549 39.9578 28.3729 41.0397C27.291 42.1217 26.75 43.4279 26.75 44.9585C26.75 46.4891 27.291 47.7953 28.3729 48.8772C29.4549 49.9592 30.7611 50.5002 32.2917 50.5002H36.25V53.6668H32.2917Z" fill="#8F700E"/>
</g>
</svg>
